<svg width="16" height="16" viewBox="0 0 16 16" fill="none" xmlns="http://www.w3.org/2000/svg">
<path d="M8.00001 13.3333C9.4145 13.3333 10.7711 12.7713 11.7712 11.7712C12.7714 10.771 13.3333 9.41441 13.3333 7.99992C13.3333 6.58543 12.7714 5.22888 11.7712 4.22868C10.7711 3.22849 9.4145 2.66659 8.00001 2.66659C6.58552 2.66659 5.22897 3.22849 4.22877 4.22868C3.22858 5.22888 2.66668 6.58543 2.66668 7.99992C2.66668 9.41441 3.22858 10.771 4.22877 11.7712C5.22897 12.7713 6.58552 13.3333 8.00001 13.3333ZM8.00001 1.33325C8.87549 1.33325 9.7424 1.50569 10.5512 1.84072C11.3601 2.17575 12.095 2.66682 12.7141 3.28587C13.3331 3.90493 13.8242 4.63986 14.1592 5.4487C14.4942 6.25753 14.6667 7.12444 14.6667 7.99992C14.6667 9.76803 13.9643 11.4637 12.7141 12.714C11.4638 13.9642 9.76812 14.6666 8.00001 14.6666C4.31334 14.6666 1.33334 11.6666 1.33334 7.99992C1.33334 6.23181 2.03572 4.53612 3.28597 3.28587C4.53621 2.03563 6.2319 1.33325 8.00001 1.33325ZM8.33334 4.66659V8.16659L11.3333 9.94659L10.8333 10.7666L7.33334 8.66659V4.66659H8.33334Z" fill="white"/>
</svg>
