<svg width="16" height="16" viewBox="0 0 16 16" fill="none" xmlns="http://www.w3.org/2000/svg">
<path d="M8.00001 9.99992C8.54001 9.99992 9.00001 9.79992 9.40668 9.40659C9.80001 8.99992 10 8.53992 10 7.99992C10 7.45992 9.80001 6.99992 9.40668 6.59325C9.00001 6.19992 8.54001 5.99992 8.00001 5.99992C7.46001 5.99992 7.00001 6.19992 6.59334 6.59325C6.20001 6.99992 6.00001 7.45992 6.00001 7.99992C6.00001 8.53992 6.20001 8.99992 6.59334 9.40659C7.00001 9.79992 7.46001 9.99992 8.00001 9.99992ZM8.00001 1.33325C9.83334 1.33325 11.4 1.99992 12.7 3.29992C14 4.59992 14.6667 6.16659 14.6667 7.99992V8.96659C14.6667 9.63325 14.4333 10.1999 14 10.6666C13.5333 11.1133 13 11.3333 12.3333 11.3333C11.5333 11.3333 10.8733 10.9999 10.3733 10.3333C9.70668 10.9999 8.92001 11.3333 8.00001 11.3333C7.08668 11.3333 6.30001 10.9999 5.64001 10.3599C5.00001 9.69992 4.66668 8.91992 4.66668 7.99992C4.66668 7.08659 5.00001 6.29992 5.64001 5.63992C6.30001 4.99992 7.08668 4.66659 8.00001 4.66659C8.92001 4.66659 9.70001 4.99992 10.36 5.63992C11 6.29992 11.3333 7.08659 11.3333 7.99992V8.96659C11.3333 9.23992 11.44 9.47992 11.64 9.68659C11.84 9.89325 12.0733 9.99992 12.3333 9.99992C12.6133 9.99992 12.8467 9.89325 13.0467 9.68659C13.2467 9.47992 13.3333 9.23992 13.3333 8.96659V7.99992C13.3333 6.53992 12.82 5.28659 11.7667 4.23325C10.7133 3.17992 9.46001 2.66659 8.00001 2.66659C6.54001 2.66659 5.28668 3.17992 4.23334 4.23325C3.18001 5.28659 2.66668 6.53992 2.66668 7.99992C2.66668 9.45992 3.18001 10.7133 4.23334 11.7666C5.28668 12.8199 6.54001 13.3333 8.00001 13.3333H11.3333V14.6666H8.00001C6.16668 14.6666 4.60001 13.9999 3.30001 12.6999C2.00001 11.3999 1.33334 9.83325 1.33334 7.99992C1.33334 6.16659 2.00001 4.59992 3.30001 3.29992C4.60001 1.99992 6.16668 1.33325 8.00001 1.33325Z" fill="white"/>
</svg>
