<svg width="320" height="297" viewBox="0 0 320 297" fill="none" xmlns="http://www.w3.org/2000/svg">
<path d="M270.537 38.0529L269.063 35.6544C256.633 15.4241 234.205 3.24425 210.541 4.72502C207.503 4.91412 204.482 5.32304 201.503 5.94857C179.952 10.5021 161.258 26.5682 153.5 47.1461C148.932 59.2495 147.66 73.1882 138.998 82.7959C127.722 95.3094 108.583 95.6848 91.7592 95.1704C74.9354 94.656 55.7827 95.0939 44.5622 107.642C37.5406 115.505 35.3021 126.684 35.8722 137.216C37.3738 165.087 57.041 190.009 82.0542 202.398C107.067 214.786 136.495 215.892 163.872 210.462C202.219 202.815 238.689 181.869 260.616 149.486C282.543 117.104 288.083 72.9727 270.537 38.0529Z" fill="#F5F5F5"/>
<path d="M116.946 45.561C112.775 40.8267 104.057 38.2197 97.7311 38.9358C94.8395 38.8623 91.9709 39.4674 89.3553 40.7027C86.7397 41.9379 84.45 43.7688 82.6697 46.0486C80.8894 48.3283 79.6681 50.9936 79.1037 53.8305C78.5392 56.6675 78.6474 59.5972 79.4196 62.3848C81.7694 70.908 90.1395 76.7546 98.8226 78.4161C104.384 79.4728 110.502 78.9862 115.055 75.6353C119.609 72.2845 121.861 66.8063 122.466 61.3003C123.155 55.0296 121.111 50.2953 116.946 45.561Z" fill="#F5F5F5"/>
<path d="M320 293.066C320 293.163 248.395 293.246 160.007 293.246C71.6194 293.246 0 293.191 0 293.066C0 292.941 71.6055 292.885 160.007 292.885C248.408 292.885 320 292.968 320 293.066Z" fill="#222222"/>
<path d="M302.648 84.7216H201.649V152.351H302.648V84.7216Z" fill="white"/>
<path d="M302.648 152.344C302.648 152.344 302.648 151.919 302.648 151.113V147.547C302.648 144.418 302.648 139.823 302.606 133.949C302.606 122.193 302.564 105.306 302.53 84.7216L302.676 84.8606L201.684 84.9023L201.865 84.7216C201.865 108.81 201.865 131.717 201.865 152.344L201.698 152.177L274.465 152.26L295.251 152.302H300.778H302.21H300.82H295.321L274.569 152.344L201.698 152.427H201.531V152.26C201.531 131.634 201.531 108.727 201.531 84.6381V84.4504H201.719L302.71 84.4921H302.856V84.6381C302.856 105.265 302.801 122.179 302.78 133.949C302.78 139.816 302.78 144.377 302.745 147.519C302.745 149.069 302.745 150.258 302.745 151.064C302.745 151.871 302.648 152.344 302.648 152.344Z" fill="#4E7BBE"/>
<path d="M201.649 90.7559C201.649 90.6516 224.243 90.5751 252.107 90.5751C279.97 90.5751 302.564 90.6516 302.564 90.7559C302.564 90.8602 279.977 90.9366 252.107 90.9366C224.236 90.9366 201.649 90.888 201.649 90.7559Z" fill="#4E7BBE"/>
<g opacity="0.3">
<path d="M205.633 87.7109C205.633 87.8721 205.585 88.0296 205.495 88.1635C205.406 88.2974 205.278 88.4017 205.129 88.463C204.98 88.5244 204.816 88.5401 204.658 88.5081C204.5 88.4762 204.355 88.398 204.242 88.2835C204.128 88.1691 204.051 88.0235 204.021 87.8653C203.99 87.7071 204.007 87.5433 204.07 87.3948C204.133 87.2463 204.238 87.1197 204.373 87.0312C204.507 86.9427 204.665 86.8961 204.826 86.8975C204.933 86.8975 205.038 86.9186 205.137 86.9596C205.235 87.0005 205.324 87.0606 205.399 87.1362C205.474 87.2118 205.533 87.3015 205.573 87.4002C205.614 87.4988 205.634 87.6044 205.633 87.7109Z" fill="#4E7BBE"/>
</g>
<g opacity="0.3">
<path d="M208.407 87.7109C208.407 87.8721 208.359 88.0296 208.269 88.1635C208.179 88.2974 208.052 88.4017 207.903 88.463C207.754 88.5244 207.59 88.5401 207.432 88.5081C207.274 88.4762 207.129 88.398 207.016 88.2835C206.902 88.1691 206.825 88.0235 206.795 87.8653C206.764 87.7071 206.781 87.5433 206.844 87.3948C206.906 87.2463 207.012 87.1197 207.146 87.0312C207.281 86.9427 207.439 86.8961 207.6 86.8975C207.707 86.8975 207.812 86.9186 207.91 86.9596C208.009 87.0005 208.098 87.0606 208.173 87.1362C208.248 87.2118 208.307 87.3015 208.347 87.4002C208.387 87.4988 208.407 87.6044 208.407 87.7109Z" fill="#4E7BBE"/>
</g>
<g opacity="0.3">
<path d="M211.139 87.7109C211.139 87.8721 211.091 88.0296 211.001 88.1635C210.912 88.2974 210.784 88.4017 210.635 88.463C210.486 88.5244 210.322 88.5401 210.164 88.5081C210.006 88.4762 209.861 88.398 209.748 88.2835C209.635 88.1691 209.558 88.0235 209.527 87.8653C209.496 87.7071 209.514 87.5433 209.576 87.3948C209.639 87.2463 209.744 87.1197 209.879 87.0312C210.013 86.9427 210.171 86.8961 210.333 86.8975C210.439 86.8975 210.544 86.9186 210.643 86.9596C210.741 87.0005 210.83 87.0606 210.905 87.1362C210.98 87.2118 211.039 87.3015 211.08 87.4002C211.12 87.4988 211.14 87.6044 211.139 87.7109Z" fill="#4E7BBE"/>
</g>
<path d="M237.271 97.8052H210.333V124.744H237.271V97.8052Z" fill="#4E7BBE"/>
<path d="M288.799 105.418C288.799 105.522 278.288 105.598 265.33 105.598C252.371 105.598 241.86 105.522 241.86 105.418C241.86 105.313 252.371 105.237 265.33 105.237C278.288 105.237 288.799 105.32 288.799 105.418Z" fill="#4E7BBE"/>
<path d="M288.799 110.43C288.799 110.527 278.288 110.611 265.33 110.611C252.371 110.611 241.86 110.527 241.86 110.43C241.86 110.333 252.371 110.249 265.33 110.249C278.288 110.249 288.799 110.354 288.799 110.43Z" fill="#4E7BBE"/>
<path d="M288.799 115.435C288.799 115.533 278.288 115.616 265.33 115.616C252.371 115.616 241.86 115.533 241.86 115.435C241.86 115.338 252.371 115.255 265.33 115.255C278.288 115.255 288.799 115.331 288.799 115.435Z" fill="#4E7BBE"/>
<path d="M269.605 120.441C269.244 120.497 268.879 120.521 268.514 120.51L265.538 120.566C263.028 120.601 259.559 120.622 255.736 120.622C251.912 120.622 248.436 120.622 245.927 120.566L242.951 120.51C242.586 120.521 242.221 120.497 241.86 120.441C242.221 120.384 242.586 120.361 242.951 120.371L245.927 120.316C248.436 120.281 251.905 120.26 255.736 120.26C259.566 120.26 263.028 120.26 265.538 120.316L268.514 120.371C268.879 120.361 269.244 120.384 269.605 120.441Z" fill="#4E7BBE"/>
<g opacity="0.3">
<path d="M224.674 133.83H212.015V146.49H224.674V133.83Z" fill="#4E7BBE"/>
</g>
<path d="M247.637 133.83H234.977V146.49H247.637V133.83Z" fill="#4E7BBE"/>
<path d="M270.599 133.83H257.94V146.49H270.599V133.83Z" fill="#4E7BBE"/>
<path d="M293.561 133.83H280.902V146.49H293.561V133.83Z" fill="#4E7BBE"/>
<g opacity="0.3">
<path d="M237.271 97.8052H210.333V124.744H237.271V97.8052Z" fill="white"/>
</g>
<g opacity="0.3">
<path d="M247.637 133.83H234.977V146.49H247.637V133.83Z" fill="white"/>
</g>
<g opacity="0.3">
<path d="M270.599 133.83H257.94V146.49H270.599V133.83Z" fill="white"/>
</g>
<g opacity="0.3">
<path d="M293.561 133.83H280.902V146.49H293.561V133.83Z" fill="white"/>
</g>
<path d="M106.908 109.081H16.9349V145.628H106.908V109.081Z" fill="white"/>
<path d="M106.908 145.628C106.908 145.628 106.908 145.405 106.908 144.974C106.908 144.543 106.908 143.911 106.908 143.077C106.908 141.408 106.908 138.961 106.908 135.805C106.908 129.499 106.908 120.371 106.852 109.081L106.949 109.179L16.9837 109.22L17.1297 109.081C17.1297 121.88 17.1297 134.234 17.1297 145.628L16.9907 145.489L81.4982 145.551L100.213 145.593H105.225H106.518H105.253H100.275L81.5955 145.628L16.9907 145.69H16.7891V108.963H16.9351L106.901 109.012H107.005V109.109C107.005 120.427 106.963 129.569 106.949 135.895C106.949 139.037 106.949 141.457 106.949 143.146C106.949 143.966 106.949 144.592 106.949 145.023C106.949 145.454 106.908 145.628 106.908 145.628Z" fill="#4E7BBE"/>
<path d="M17.0254 114.01C17.0254 113.934 37.1375 113.864 61.9352 113.864C86.733 113.864 106.859 113.934 106.859 114.01C106.859 114.087 86.7469 114.149 61.9352 114.149C37.1236 114.149 17.0254 114.087 17.0254 114.01Z" fill="#4E7BBE"/>
<g opacity="0.3">
<path d="M20.7934 111.807C20.7934 111.936 20.7551 112.062 20.6833 112.17C20.6115 112.277 20.5094 112.361 20.39 112.41C20.2706 112.46 20.1392 112.473 20.0124 112.447C19.8857 112.422 19.7692 112.36 19.6779 112.269C19.5865 112.177 19.5242 112.061 19.499 111.934C19.4738 111.807 19.4867 111.676 19.5362 111.556C19.5857 111.437 19.6694 111.335 19.7769 111.263C19.8843 111.191 20.0107 111.153 20.1399 111.153C20.3133 111.153 20.4795 111.222 20.602 111.344C20.7246 111.467 20.7934 111.633 20.7934 111.807Z" fill="#4E7BBE"/>
</g>
<g opacity="0.3">
<path d="M23.0459 111.807C23.0459 111.936 23.0075 112.062 22.9357 112.17C22.8639 112.277 22.7619 112.361 22.6425 112.41C22.523 112.46 22.3917 112.473 22.2649 112.447C22.1381 112.422 22.0217 112.36 21.9303 112.269C21.8389 112.177 21.7767 112.061 21.7514 111.934C21.7262 111.807 21.7392 111.676 21.7886 111.556C21.8381 111.437 21.9219 111.335 22.0293 111.263C22.1368 111.191 22.2631 111.153 22.3924 111.153C22.5657 111.153 22.7319 111.222 22.8545 111.344C22.977 111.467 23.0459 111.633 23.0459 111.807Z" fill="#4E7BBE"/>
</g>
<g opacity="0.3">
<path d="M25.2357 111.807C25.2357 111.936 25.1974 112.062 25.1256 112.17C25.0537 112.277 24.9517 112.361 24.8323 112.41C24.7129 112.46 24.5815 112.473 24.4547 112.447C24.3279 112.422 24.2115 112.36 24.1201 112.269C24.0287 112.177 23.9665 112.061 23.9413 111.934C23.9161 111.807 23.929 111.676 23.9785 111.556C24.0279 111.437 24.1117 111.335 24.2191 111.263C24.3266 111.191 24.4529 111.153 24.5822 111.153C24.7555 111.153 24.9217 111.222 25.0443 111.344C25.1668 111.467 25.2357 111.633 25.2357 111.807Z" fill="#4E7BBE"/>
</g>
<path d="M46.3141 119.947H24.5822V141.679H46.3141V119.947Z" fill="#4E7BBE"/>
<path d="M100.685 125.773C100.685 125.85 89.4998 125.919 75.707 125.919C61.9143 125.919 50.7285 125.85 50.7285 125.773C50.7285 125.697 61.9143 125.634 75.707 125.634C89.4998 125.634 100.685 125.697 100.685 125.773Z" fill="#4E7BBE"/>
<path d="M100.685 130.201C100.685 130.278 89.4998 130.341 75.707 130.341C61.9143 130.341 50.7285 130.278 50.7285 130.201C50.7285 130.125 61.9143 130.055 75.707 130.055C89.4998 130.055 100.685 130.125 100.685 130.201Z" fill="#4E7BBE"/>
<path d="M82.8886 134.63C82.7798 134.637 82.6707 134.637 82.5619 134.63H81.6234L78.1821 134.672L66.8087 134.713L55.4422 134.672L51.9662 134.63H51.0277C50.9189 134.637 50.8097 134.637 50.7009 134.63C50.8093 134.614 50.9193 134.614 51.0277 134.63H51.9662L55.4422 134.581L66.8087 134.54L78.1821 134.581L81.6234 134.63H82.5619C82.6702 134.614 82.7803 134.614 82.8886 134.63Z" fill="#4E7BBE"/>
<g opacity="0.3">
<path d="M46.3141 119.947H24.5822V141.679H46.3141V119.947Z" fill="#F5F5F5"/>
</g>
<path d="M173.021 63.1565C171.513 62.1485 169.441 62.7603 167.932 63.7683C166.424 64.7763 165.151 66.1528 163.448 66.8063C160.278 68.0368 156.114 66.5769 153.653 68.8919C152.089 70.3796 151.929 72.8267 150.733 74.6273C148.717 77.6584 143.878 78.7985 143.468 82.4135C143.225 84.4991 144.893 86.543 146.944 87.1339C147.98 87.3771 149.056 87.3949 150.1 87.1862C151.143 86.9775 152.13 86.5472 152.992 85.9243C155.078 84.5339 156.684 82.4483 159.034 81.6558C161.383 80.8632 164.408 81.5237 166.306 79.8482C168.203 78.1728 167.918 75.0792 169.281 72.938C170.1 71.8618 171.072 70.911 172.166 70.1155C173.188 69.2326 174.161 68.1411 174.335 66.7994C174.509 65.4576 173.96 63.1704 173.035 63.1218" fill="#F5F5F5"/>
<path d="M133.847 210.852C133.937 210.803 134.215 211.081 134.479 211.477C134.743 211.873 134.889 212.249 134.806 212.304C134.723 212.36 134.444 212.082 134.173 211.679C133.902 211.276 133.763 210.907 133.847 210.852Z" fill="#222222"/>
<path d="M130.871 204.581C131.246 205.035 131.527 205.56 131.698 206.124C131.973 206.644 132.141 207.214 132.192 207.8C131.535 206.829 131.085 205.733 130.871 204.581Z" fill="#222222"/>
<path d="M129.258 197.823C129.704 198.907 129.919 200.072 129.891 201.244C129.614 200.725 129.446 200.155 129.397 199.568C129.235 199.002 129.187 198.409 129.258 197.823Z" fill="#222222"/>
<path d="M129.015 190.878C129.235 192.028 129.218 193.211 128.966 194.354C128.79 193.793 128.735 193.201 128.806 192.616C128.752 192.029 128.823 191.436 129.015 190.878Z" fill="#222222"/>
<path d="M130.106 184.045C130.162 184.631 130.099 185.222 129.919 185.783C129.849 186.367 129.665 186.932 129.377 187.444C129.321 186.858 129.385 186.267 129.564 185.706C129.635 185.122 129.819 184.558 130.106 184.045Z" fill="#222222"/>
<path d="M132.637 177.545C132.405 178.688 131.931 179.769 131.247 180.715C131.316 180.13 131.503 179.564 131.796 179.053C132.192 178.17 132.547 177.496 132.637 177.545Z" fill="#222222"/>
<path d="M136.467 171.747C136.275 172.304 135.972 172.817 135.578 173.255C135.265 173.752 134.867 174.189 134.403 174.548C134.305 174.486 134.709 173.811 135.286 173.04C135.863 172.268 136.363 171.684 136.467 171.747Z" fill="#222222"/>
<path d="M141.139 166.602C141.215 166.672 140.736 167.297 140.075 167.993C139.415 168.688 138.817 169.188 138.74 169.126C138.664 169.063 139.144 168.43 139.811 167.735C140.478 167.04 141.069 166.526 141.139 166.602Z" fill="#222222"/>
<path d="M146.033 161.652C146.11 161.722 145.616 162.347 144.942 163.043C144.268 163.738 143.663 164.225 143.593 164.155C143.524 164.085 144.01 163.46 144.685 162.765C145.359 162.069 145.964 161.583 146.033 161.652Z" fill="#222222"/>
<path d="M150.608 156.41C150.388 156.957 150.059 157.454 149.642 157.87C149.03 158.621 148.474 159.17 148.397 159.101C148.624 158.557 148.952 158.062 149.364 157.641C149.968 156.932 150.525 156.355 150.608 156.41Z" fill="#222222"/>
<path d="M154.153 150.446C154.091 151.035 153.891 151.602 153.569 152.1C153.349 152.651 153.004 153.144 152.561 153.539C152.696 152.967 152.931 152.423 153.256 151.933C153.469 151.39 153.772 150.887 154.153 150.446Z" fill="#222222"/>
<path d="M155.829 143.723C155.964 144.301 155.952 144.903 155.794 145.475C155.754 146.069 155.57 146.644 155.258 147.15C155.223 146.567 155.284 145.982 155.439 145.419C155.477 144.837 155.608 144.264 155.829 143.723Z" fill="#222222"/>
<path d="M155.328 136.82C155.637 137.327 155.813 137.903 155.843 138.495C155.986 139.073 155.986 139.676 155.843 140.254C155.624 139.711 155.497 139.135 155.467 138.551C155.328 137.985 155.281 137.401 155.328 136.82Z" fill="#222222"/>
<path d="M152.596 130.459C152.679 130.403 153.187 131.008 153.646 131.849C153.977 132.344 154.182 132.912 154.244 133.504C153.861 133.062 153.551 132.562 153.326 132.023C153.004 131.542 152.758 131.014 152.596 130.459Z" fill="#222222"/>
<path d="M147.751 125.523C148.317 125.701 148.833 126.013 149.252 126.434C149.996 127.059 150.483 127.685 150.413 127.754C150.344 127.824 149.718 127.323 149.023 126.712C148.328 126.1 147.688 125.606 147.751 125.523Z" fill="#222222"/>
<path d="M141.431 122.7C142.023 122.664 142.615 122.774 143.155 123.02C143.736 123.154 144.273 123.431 144.719 123.826C144.138 123.761 143.57 123.604 143.037 123.361C142.468 123.233 141.925 123.01 141.431 122.7Z" fill="#222222"/>
<path d="M134.521 122.387C135.053 122.122 135.644 121.998 136.238 122.026C136.828 121.939 137.43 122.001 137.99 122.207C137.425 122.354 136.842 122.415 136.259 122.387C135.683 122.479 135.097 122.479 134.521 122.387Z" fill="#222222"/>
<path d="M128.111 124.953C128.049 124.869 128.646 124.348 129.502 123.889C129.994 123.552 130.568 123.352 131.163 123.312C130.71 123.679 130.207 123.978 129.668 124.202C129.19 124.528 128.665 124.782 128.111 124.953Z" fill="#222222"/>
<path d="M123.335 129.944C123.486 129.368 123.781 128.84 124.19 128.408C124.781 127.636 125.393 127.129 125.463 127.198C125.532 127.268 125.052 127.893 124.475 128.63C123.898 129.367 123.419 129.993 123.335 129.944Z" fill="#222222"/>
<path d="M120.992 136.437C120.883 135.852 120.929 135.248 121.124 134.686C121.212 134.092 121.451 133.532 121.82 133.059C121.798 133.642 121.688 134.219 121.493 134.769C121.413 135.347 121.244 135.91 120.992 136.437Z" fill="#222222"/>
<path d="M121.82 143.285C121.452 142.812 121.212 142.252 121.124 141.658C120.925 141.097 120.877 140.492 120.985 139.906C121.226 140.437 121.393 140.999 121.479 141.575C121.675 142.126 121.789 142.702 121.82 143.285Z" fill="#222222"/>
<path d="M125.344 149.236C125.268 149.306 124.691 148.763 124.128 147.971C123.734 147.525 123.455 146.991 123.314 146.413C123.405 146.365 123.863 146.991 124.42 147.762C124.806 148.2 125.118 148.698 125.344 149.236Z" fill="#222222"/>
<path d="M130.461 153.929C129.899 153.74 129.388 153.426 128.966 153.011C128.208 152.406 127.687 151.815 127.756 151.739C128.287 151.986 128.771 152.322 129.189 152.733C129.932 153.331 130.523 153.845 130.461 153.929Z" fill="#222222"/>
<path d="M136.488 157.384C135.355 157.081 134.299 156.544 133.388 155.806C133.968 155.905 134.523 156.118 135.021 156.431C135.57 156.646 136.069 156.97 136.488 157.384Z" fill="#222222"/>
<path d="M143.107 159.49C142.517 159.558 141.919 159.486 141.362 159.282C140.774 159.194 140.217 158.968 139.735 158.621C140.321 158.63 140.901 158.736 141.452 158.934C142.032 159.02 142.592 159.208 143.107 159.49Z" fill="#222222"/>
<path d="M150.031 159.845C148.901 160.192 147.697 160.216 146.555 159.914C147.119 159.765 147.704 159.713 148.286 159.761C148.868 159.692 149.458 159.72 150.031 159.845Z" fill="#222222"/>
<path d="M156.719 158.058C155.763 158.752 154.63 159.16 153.451 159.233C153.941 158.913 154.482 158.678 155.05 158.538C155.575 158.284 156.139 158.122 156.719 158.058Z" fill="#222222"/>
<path d="M162.517 154.255C162.586 154.332 162.058 154.951 161.286 155.507C160.854 155.912 160.332 156.21 159.764 156.376C159.708 156.285 160.313 155.806 161.071 155.222C161.498 154.825 161.986 154.499 162.517 154.255Z" fill="#222222"/>
<path d="M167.042 149C166.881 149.57 166.588 150.094 166.187 150.529C165.61 151.308 165.033 151.843 164.956 151.78C164.88 151.718 165.332 151.085 165.902 150.314C166.472 149.542 166.952 148.944 167.042 149Z" fill="#222222"/>
<path d="M170.052 142.743C170.05 143.336 169.905 143.921 169.628 144.446C169.267 145.35 168.843 146.017 168.752 145.969C168.836 145.391 169.017 144.831 169.287 144.314C169.455 143.752 169.713 143.221 170.052 142.743Z" fill="#222222"/>
<path d="M171.401 135.937C171.552 137.106 171.389 138.293 170.928 139.378C170.909 138.214 171.068 137.053 171.401 135.937Z" fill="#222222"/>
<path d="M171.22 128.992C171.447 129.535 171.556 130.12 171.54 130.709C171.64 131.29 171.623 131.886 171.491 132.461C171.165 131.333 171.073 130.15 171.22 128.985V128.992Z" fill="#222222"/>
<path d="M169.733 122.207C170.055 122.701 170.27 123.258 170.365 123.84C170.575 124.39 170.669 124.977 170.644 125.564C170.325 125.068 170.109 124.512 170.011 123.931C169.801 123.381 169.706 122.794 169.733 122.207Z" fill="#222222"/>
<path d="M167.049 115.783C167.139 115.734 167.557 116.402 167.974 117.271C168.268 117.783 168.452 118.352 168.516 118.939C167.85 117.979 167.354 116.911 167.049 115.783Z" fill="#222222"/>
<path d="M163.629 109.728C163.719 109.672 164.178 110.305 164.665 111.118C165.003 111.596 165.239 112.138 165.36 112.71C164.927 112.319 164.575 111.846 164.324 111.32C163.992 110.839 163.755 110.298 163.629 109.728Z" fill="#222222"/>
<path d="M160.181 103.687C160.271 103.638 160.716 104.284 161.182 105.119C161.518 105.605 161.754 106.153 161.877 106.732C161.451 106.323 161.111 105.834 160.876 105.292C160.536 104.811 160.299 104.264 160.181 103.687Z" fill="#222222"/>
<path d="M157.462 97.2908C158.092 98.2805 158.506 99.3912 158.679 100.551C158.311 100.089 158.046 99.5531 157.9 98.9801C157.641 98.4526 157.492 97.8778 157.462 97.2908Z" fill="#222222"/>
<path d="M156.281 90.4569C156.485 91.0062 156.589 91.588 156.587 92.1741C156.707 92.7455 156.729 93.3335 156.649 93.9121C156.375 93.3861 156.232 92.8018 156.232 92.2088C156.112 91.629 156.128 91.0292 156.281 90.4569Z" fill="#222222"/>
<path d="M156.858 83.5397C156.913 84.122 156.871 84.7094 156.733 85.2777C156.708 85.8637 156.578 86.4406 156.35 86.981C156.216 86.4024 156.216 85.8007 156.35 85.2221C156.384 84.6292 156.558 84.0527 156.858 83.5397Z" fill="#222222"/>
<path d="M159.124 76.984C159.035 77.5635 158.847 78.1233 158.568 78.6386C158.395 79.1981 158.13 79.7246 157.782 80.1958C157.93 79.0233 158.393 77.9131 159.124 76.984Z" fill="#222222"/>
<path d="M162.996 71.2208C163.073 71.2903 162.614 71.916 162.03 72.6738C161.446 73.4315 160.952 74.0641 160.869 73.9738C161.034 73.4031 161.334 72.8807 161.745 72.4513C162.336 71.6866 162.927 71.1582 162.996 71.2208Z" fill="#222222"/>
<path d="M168.217 66.6464C168.273 66.7298 167.668 67.2234 166.917 67.8074C166.491 68.2093 166 68.5361 165.464 68.7737C165.395 68.6972 165.93 68.0785 166.695 67.5223C167.126 67.1149 167.648 66.8148 168.217 66.6464Z" fill="#222222"/>
<path d="M174.404 63.5041C173.936 63.8557 173.412 64.126 172.854 64.3036C172.345 64.5899 171.79 64.7852 171.213 64.8806C171.165 64.7902 171.825 64.3592 172.715 63.9768C173.231 63.6843 173.811 63.522 174.404 63.5041Z" fill="#222222"/>
<path d="M179.465 62.2249C179.465 62.3222 179.111 62.4752 178.645 62.5586C178.179 62.642 177.776 62.642 177.755 62.5586C177.734 62.4752 178.103 62.3083 178.576 62.218C179.048 62.1276 179.465 62.1276 179.465 62.2249Z" fill="#222222"/>
<path d="M193.634 41.7583C193.634 41.7583 201.795 35.9325 213.099 39.6727C213.099 39.6727 214.024 49.0301 204.965 56.4687" fill="#4E7BBE"/>
<path d="M167.89 59.0409C168.238 59.5623 177.102 73.8069 177.102 73.8069L203.707 57.4141C204.805 56.7374 205.751 55.8399 206.484 54.7786C207.217 53.7173 207.722 52.5153 207.966 51.2488C208.211 49.9822 208.19 48.6787 207.904 47.4208C207.618 46.1629 207.075 44.978 206.307 43.9412C204.881 42.0167 202.768 40.716 200.408 40.3094C198.047 39.9029 195.621 40.4218 193.634 41.7583L167.89 59.0409Z" fill="#4E7BBE"/>
<path d="M177.102 73.8069L176.504 83.8317C176.504 83.8317 193.745 75.4893 189.442 66.2015L177.102 73.8069Z" fill="#222222"/>
<path d="M180.216 50.7681C180.216 50.7681 168.523 45.6097 158.901 53.1734L167.89 59.0409L180.216 50.7681Z" fill="#222222"/>
<path d="M180.161 59.0479L163.524 69.4759C163.524 69.4759 164.094 71.2695 164.539 71.1165C164.984 70.9636 177.421 63.6084 181.474 61.21C181.629 61.1178 181.763 60.9932 181.865 60.8448C181.967 60.6963 182.036 60.5275 182.067 60.3499C182.098 60.1724 182.091 59.9902 182.045 59.8158C181.999 59.6415 181.916 59.4791 181.801 59.3399C181.61 59.0995 181.338 58.9371 181.036 58.8834C180.734 58.8296 180.423 58.8881 180.161 59.0479Z" fill="#222222"/>
<path d="M200.65 52.3789C201.324 49.516 199.549 46.6491 196.686 45.9755C193.823 45.302 190.956 47.0767 190.283 49.9396C189.609 52.8024 191.384 55.6693 194.247 56.3429C197.11 57.0165 199.976 55.2417 200.65 52.3789Z" fill="#F5F5F5"/>
<path d="M200.787 51.1573C200.746 51.1573 200.787 50.6846 200.551 49.8782C200.24 48.7365 199.555 47.7325 198.604 47.0279C197.959 46.5435 197.209 46.2173 196.414 46.0754C195.506 45.9135 194.57 45.995 193.703 46.3118C192.734 46.6549 191.891 47.2825 191.284 48.1124C190.633 48.9944 190.283 50.0615 190.283 51.1573C190.283 52.2532 190.633 53.3203 191.284 54.2023C191.885 55.028 192.717 55.657 193.675 56.0098C194.542 56.3263 195.478 56.4078 196.387 56.2462C197.181 56.1044 197.931 55.7782 198.577 55.2938C199.525 54.5876 200.211 53.5842 200.523 52.4435C200.739 51.637 200.718 51.1573 200.759 51.1573C200.778 51.2725 200.778 51.3898 200.759 51.5049C200.757 51.8328 200.718 52.1594 200.641 52.4782C200.406 53.4905 199.882 54.4129 199.133 55.1335C198.384 55.8541 197.442 56.342 196.421 56.5382C195.406 56.737 194.354 56.6425 193.39 56.2658C192.427 55.8891 191.59 55.2457 190.978 54.4109C190.278 53.4705 189.9 52.3295 189.9 51.1573C189.9 49.9852 190.278 48.8442 190.978 47.9038C191.621 47.0247 192.516 46.3607 193.543 45.999C194.405 45.6868 195.332 45.599 196.236 45.7437C197.141 45.8885 197.994 46.261 198.716 46.8263C199.711 47.5776 200.41 48.6557 200.69 49.8712C200.766 50.1901 200.806 50.5166 200.808 50.8445C200.817 50.9492 200.81 51.0547 200.787 51.1573Z" fill="#222222"/>
<path d="M207.273 54.7376C207.204 54.7376 207.127 53.7018 206.717 52.082C206.474 51.1345 206.165 50.2053 205.792 49.3012C204.866 47.0942 203.558 45.0679 201.927 43.3155C201.259 42.6026 200.541 41.9382 199.779 41.3273C198.465 40.2914 197.554 39.7909 197.589 39.7283C197.821 39.806 198.043 39.911 198.25 40.0411C198.505 40.1737 198.753 40.3199 198.993 40.4791C199.271 40.6668 199.598 40.8615 199.932 41.1256C200.731 41.7137 201.477 42.3696 202.163 43.0861C203.862 44.8383 205.199 46.9076 206.098 49.1761C206.466 50.0983 206.757 51.0493 206.967 52.0194C207.072 52.4296 207.113 52.8119 207.169 53.1456C207.215 53.4287 207.245 53.7142 207.259 54.0007C207.299 54.2444 207.304 54.4926 207.273 54.7376Z" fill="#222222"/>
<path d="M205.841 55.4745C205.772 55.4745 205.688 54.4248 205.271 52.7772C205.024 51.8158 204.71 50.8728 204.333 49.9547C203.859 48.8351 203.294 47.7562 202.643 46.7289C201.981 45.7112 201.237 44.7487 200.419 43.8508C199.741 43.1204 199.011 42.4397 198.236 41.8139C196.908 40.7502 195.983 40.2358 196.018 40.1732C196.262 40.2532 196.496 40.3629 196.713 40.5C196.97 40.6353 197.219 40.7862 197.457 40.9518C197.742 41.1395 198.076 41.3481 198.41 41.647C199.211 42.2429 199.964 42.9007 200.662 43.6144C201.51 44.5152 202.275 45.49 202.949 46.5273C203.607 47.5743 204.173 48.677 204.638 49.8226C205.011 50.7611 205.306 51.7283 205.521 52.7146C205.626 53.1317 205.667 53.521 205.723 53.8547C205.774 54.142 205.807 54.4323 205.82 54.7237C205.855 54.9724 205.862 55.2243 205.841 55.4745Z" fill="#222222"/>
<path d="M43.0954 276.506C42.4975 274.142 44.0617 271.779 45.8067 270.075C47.5516 268.372 49.6303 266.85 50.5479 264.59C52.0287 260.934 50.0891 256.171 52.6335 253.127C54.1074 251.333 56.7491 250.749 58.0561 248.83C58.6652 247.772 59.0707 246.61 59.2518 245.403C60.6724 239.315 63.7025 233.721 68.0252 229.205C68.2946 234.634 67.0937 240.036 64.5492 244.84C63.5273 246.759 62.2759 248.629 61.9353 250.777C61.3652 254.253 63.3257 257.861 62.4219 261.281C61.4139 265.188 57.0063 267.788 56.77 271.813C56.5753 275.227 59.5508 278.23 59.2866 281.637C59.1038 283.084 58.577 284.467 57.7502 285.669C55.025 290.014 51.1528 293.01 45.2922 292.878L38.1039 293.087L43.0954 276.506Z" fill="#4E7BBE"/>
<g opacity="0.3">
<path d="M43.0954 276.506C42.4975 274.142 44.0617 271.779 45.8067 270.075C47.5516 268.372 49.6303 266.85 50.5479 264.59C52.0287 260.934 50.0891 256.171 52.6335 253.127C54.1074 251.333 56.7491 250.749 58.0561 248.83C58.6652 247.772 59.0707 246.61 59.2518 245.403C60.6724 239.315 63.7025 233.721 68.0252 229.205C68.2946 234.634 67.0937 240.036 64.5492 244.84C63.5273 246.759 62.2759 248.629 61.9353 250.777C61.3652 254.253 63.3257 257.861 62.4219 261.281C61.4139 265.188 57.0063 267.788 56.77 271.813C56.5753 275.227 59.5508 278.23 59.2866 281.637C59.1038 283.084 58.577 284.467 57.7502 285.669C55.025 290.014 51.1528 293.01 45.2922 292.878L38.1039 293.087L43.0954 276.506Z" fill="black"/>
</g>
<path d="M36.6439 293.267C35.9854 293.367 35.3145 293.348 34.6626 293.212C33.8684 293.09 33.0882 292.89 32.3337 292.614C31.2929 292.243 30.3205 291.703 29.4556 291.015C28.9368 290.594 28.5327 290.049 28.2807 289.43C28.0676 288.734 27.9575 288.01 27.9539 287.282C27.9432 286.503 27.8921 285.726 27.801 284.953C27.6654 284.132 27.3701 283.345 26.932 282.638C26.0978 281.143 24.6935 279.732 24.2555 277.702C23.8175 275.672 24.1373 273.531 24.4849 271.41C24.8325 269.29 25.1801 266.905 24.3528 264.653C23.5255 262.401 22.0309 260.364 21.2592 257.826C20.4875 255.289 20.8699 252.515 20.7169 249.797C20.6772 248.417 20.3678 247.059 19.8062 245.799C19.2292 244.527 18.4158 243.324 17.811 241.983C16.5527 239.264 16.3441 236.198 16.0104 233.188C15.8505 231.673 15.6837 230.136 15.5238 228.593C15.425 227.036 15.164 225.494 14.7452 223.991C14.2711 222.473 13.707 220.985 13.0558 219.535C12.7171 218.783 12.4427 218.004 12.2355 217.206C12.1172 216.385 12.0429 215.559 12.013 214.731C11.945 213.071 12.0194 211.408 12.2355 209.76C12.4371 208.105 12.75 206.458 12.9307 204.796C12.9307 204.699 12.9307 204.602 12.9307 204.511L12.9655 204.185L13.2574 204.331C14.7791 205.113 16.0978 206.239 17.1088 207.619C18.0983 208.965 18.8918 210.444 19.4656 212.013C20.6474 215.106 21.0576 218.346 21.6485 221.432C22.2394 224.519 22.9833 227.571 24.5475 230.143C25.333 231.429 26.2785 232.604 27.1058 233.856C27.9857 235.077 28.5862 236.478 28.8647 237.957C29.2679 241.002 27.5785 243.665 27.9122 246.355C28.086 247.681 28.5411 248.953 29.247 250.089C29.8935 251.243 30.6374 252.306 31.3743 253.384C32.1133 254.43 32.7533 255.542 33.2861 256.707C33.7948 257.849 34.0938 259.074 34.169 260.322C34.3289 262.748 33.9744 265.042 34.169 267.218C34.3542 269.285 34.9448 271.296 35.907 273.134C36.7621 274.907 37.7215 276.513 38.521 278.063C38.92 278.811 39.2797 279.579 39.5985 280.364C39.8857 281.098 40.0932 281.86 40.2173 282.638C40.4149 283.998 40.4149 285.379 40.2173 286.739C40.0184 288.639 39.2965 290.447 38.1317 291.96C37.9563 292.186 37.7609 292.396 37.5477 292.586C37.4055 292.736 37.247 292.868 37.075 292.982L36.6648 293.267C37.1769 292.855 37.6431 292.389 38.0552 291.877C39.171 290.361 39.8556 288.571 40.0365 286.698C40.2063 285.353 40.1829 283.99 39.967 282.652C39.8377 281.89 39.628 281.144 39.3413 280.427C39.0424 279.683 38.6461 278.932 38.2637 278.161C37.4504 276.624 36.484 275.025 35.6081 273.239C34.6186 271.369 34.0068 269.324 33.8075 267.218C33.6268 265.001 33.9744 262.699 33.8075 260.329C33.7336 259.129 33.4464 257.952 32.9594 256.853C32.4298 255.711 31.7969 254.619 31.0684 253.592C30.3732 252.522 29.5807 251.451 28.9133 250.276C28.1942 249.088 27.7346 247.761 27.5646 246.383C27.2379 243.512 28.9133 240.822 28.4962 238.006C28.222 236.593 27.6379 235.259 26.786 234.099C25.9726 232.868 25.0202 231.694 24.2138 230.38C22.6009 227.731 21.8223 224.63 21.2453 221.523C20.6683 218.415 20.2372 215.21 19.0763 212.179C18.5181 210.653 17.7457 209.213 16.7821 207.904C15.8136 206.584 14.5524 205.506 13.0975 204.755L13.4312 204.567L13.3965 204.859C13.2018 206.541 12.8959 208.189 12.7013 209.823C12.4854 211.447 12.4109 213.087 12.4788 214.724C12.5205 215.523 12.5692 216.364 12.6874 217.122C12.8933 217.89 13.1583 218.641 13.4799 219.368C14.1388 220.834 14.7099 222.338 15.1901 223.873C15.608 225.397 15.8666 226.96 15.9618 228.537C16.1286 230.081 16.2885 231.617 16.4484 233.133C16.7751 236.157 16.9837 239.174 18.1934 241.795C18.7982 243.102 19.5838 244.304 20.1816 245.625C20.7636 246.941 21.0847 248.358 21.1271 249.797C21.2661 252.577 20.8907 255.282 21.6276 257.743C22.3645 260.204 23.9148 262.234 24.6935 264.563C25.4721 266.891 25.1592 269.332 24.8047 271.48C24.4501 273.628 24.1095 275.748 24.5405 277.66C24.9715 279.572 26.2994 280.997 27.1545 282.527C27.6031 283.263 27.9031 284.08 28.0374 284.932C28.1267 285.714 28.1732 286.501 28.1764 287.289C28.1695 287.994 28.2679 288.697 28.4684 289.374C28.7053 289.965 29.0851 290.488 29.5738 290.897C30.4075 291.577 31.3468 292.118 32.3546 292.496C33.0966 292.783 33.865 292.997 34.6487 293.135C35.1309 293.223 35.6189 293.274 36.1086 293.288C36.4701 293.26 36.6439 293.267 36.6439 293.267Z" fill="#222222"/>
<path d="M14.4185 208.481C14.4506 208.55 14.4739 208.622 14.488 208.696C14.5227 208.87 14.5784 209.079 14.6409 209.343C14.78 209.913 14.9399 210.768 15.204 211.839C15.4682 212.909 16.1287 214.112 16.6779 215.6C17.2271 217.087 17.8249 218.784 18.3533 220.702C18.8816 222.621 19.3683 224.755 19.8619 227.036C20.2818 229.484 21.0423 231.861 22.1213 234.099C22.7052 235.267 23.3587 236.456 23.8801 237.749C24.389 239.078 24.73 240.465 24.8951 241.878C25.2402 244.804 25.7391 247.709 26.3898 250.582C27.7802 256.477 29.1706 262.095 30.3594 267.211C31.5482 272.328 32.7369 276.902 33.6894 280.775C34.6418 284.647 35.3648 287.727 35.8932 289.923L36.4702 292.419C36.5258 292.683 36.5745 292.899 36.6092 293.073C36.6169 293.147 36.6169 293.221 36.6092 293.295C36.5739 293.227 36.5481 293.155 36.5327 293.08L36.345 292.44C36.1851 291.842 35.9627 291.015 35.6498 289.965L33.3001 280.851C32.3268 276.986 31.1658 272.397 29.8797 267.316C28.5936 262.234 27.2935 256.582 25.8684 250.679C25.2349 247.785 24.7568 244.859 24.4363 241.913C24.285 240.533 23.9579 239.178 23.463 237.881C22.9625 236.623 22.3159 235.441 21.732 234.259C20.6577 232.004 19.902 229.61 19.4865 227.147C19.0068 224.86 18.5549 222.732 18.0404 220.821C17.526 218.909 16.9837 217.192 16.4345 215.718C15.8853 214.244 15.2944 213.014 15.0441 211.908C14.7939 210.803 14.6687 209.969 14.5645 209.392C14.5158 209.127 14.481 208.905 14.4532 208.731C14.4299 208.65 14.4182 208.566 14.4185 208.481Z" fill="#222222"/>
<path d="M35.3718 293.281C30.6931 290.466 29.3931 281.991 31.3814 276.902C33.3696 271.814 36.8248 267.17 37.3809 261.747C37.8119 257.576 36.4702 253.279 37.4643 249.233C38.813 243.727 44.2147 239.501 44.1869 233.828C44.1869 230.651 42.3794 227.648 42.5393 224.47C42.7409 220.577 45.7442 217.518 47.6142 214.084C50.4785 208.849 50.7009 202.641 51.702 196.76C52.7031 190.878 54.9834 184.58 60.2182 181.716C60.9621 186.721 62.2621 190.155 61.8102 196.927C61.6434 199.353 58.793 203.997 58.3759 209.322C58.1326 212.506 57.9519 215.697 57.7433 218.888C57.5347 222.079 57.3123 225.145 56.186 228.044C55.324 230.261 53.9406 232.271 53.294 234.565C52.0774 238.882 53.6208 243.568 52.5988 247.94C51.7646 251.646 49.1784 254.823 48.6292 258.577C47.8645 263.86 51.2501 269.366 49.4704 274.4C48.5875 276.895 46.5228 278.891 45.9249 281.47C45.4591 283.472 45.9249 285.592 45.5217 287.601C44.8265 290.841 38.6392 293.323 35.337 293.107" fill="#4E7BBE"/>
<path d="M58.8971 186.638C58.9064 186.733 58.9064 186.828 58.8971 186.923C58.8971 187.131 58.8346 187.402 58.7859 187.743C58.6747 188.438 58.5495 189.523 58.2993 190.892C58.049 192.262 57.3051 193.819 56.7281 195.682C56.1511 197.545 55.5115 199.694 54.9693 202.106C54.427 204.518 53.9612 207.174 53.4746 210.038C52.988 212.902 52.4527 216.024 51.0136 219.006C50.3184 220.501 49.6232 222.003 49.0392 223.595C48.4897 225.235 48.1464 226.937 48.0173 228.663C47.7356 232.329 47.2552 235.977 46.5782 239.591C45.0974 246.988 43.6931 254.037 42.407 260.447L38.8198 277.438C37.784 282.248 36.9428 286.148 36.3588 288.881C36.0599 290.208 35.8304 291.251 35.6636 291.988L35.4759 292.795C35.4565 292.887 35.4286 292.978 35.3925 293.066C35.3846 292.973 35.3846 292.88 35.3925 292.788C35.4342 292.579 35.4828 292.308 35.5385 291.967C35.6845 291.223 35.8861 290.181 36.1502 288.846C36.6994 286.107 37.492 282.193 38.4653 277.368C39.4385 272.543 40.6412 266.752 41.9412 260.357L46.1124 239.501C46.783 235.9 47.2634 232.266 47.5515 228.614C47.6851 226.852 48.0402 225.114 48.6082 223.442C49.1852 221.815 49.943 220.306 50.6104 218.825C52.0425 215.892 52.5569 212.819 53.0783 209.962C53.5997 207.104 54.0655 204.4 54.6425 202.022C55.2195 199.645 55.8383 197.462 56.4709 195.599C57.1035 193.736 57.8196 192.185 58.1046 190.844C58.3896 189.502 58.5426 188.431 58.6816 187.722C58.7442 187.382 58.7998 187.117 58.8346 186.909C58.8482 186.817 58.8691 186.726 58.8971 186.638Z" fill="#222222"/>
<path d="M270.842 183.878H265.997V199.534H270.842V183.878Z" fill="#4E7BBE"/>
<path d="M279.762 177.433H274.917V199.527H279.762V177.433Z" fill="#4E7BBE"/>
<path d="M289.251 174.423H284.406V199.527H289.251V174.423Z" fill="#4E7BBE"/>
<path d="M298.748 171.253H293.902V199.534H298.748V171.253Z" fill="#4E7BBE"/>
<path d="M102.66 204.205C103.023 204.256 103.376 204.367 103.703 204.532C104.472 204.908 105.117 205.497 105.559 206.229C106.002 206.962 106.224 207.806 106.199 208.662C106.177 209.468 105.937 210.254 105.503 210.935C105.023 211.692 104.328 212.289 103.508 212.652C102.627 213.043 101.644 213.14 100.703 212.929C99.7629 212.717 98.9157 212.208 98.2873 211.477C97.9967 211.134 97.762 210.747 97.5921 210.33C97.4119 209.934 97.2969 209.511 97.2515 209.079C97.1509 208.277 97.2686 207.463 97.5921 206.722C97.9317 205.936 98.4923 205.267 99.2057 204.794C99.9191 204.321 100.755 204.066 101.61 204.059C101.978 204.046 102.344 204.095 102.695 204.205C102.695 204.205 102.306 204.129 101.617 204.157C100.637 204.196 99.6982 204.566 98.9547 205.206C98.4427 205.64 98.0402 206.187 97.7798 206.805C97.4847 207.515 97.3816 208.289 97.4809 209.051C97.5317 209.459 97.6442 209.858 97.8146 210.233C97.9863 210.629 98.221 210.996 98.5098 211.317C99.1073 212.004 99.9084 212.481 100.796 212.68C101.684 212.879 102.613 212.789 103.446 212.423C103.843 212.253 104.21 212.018 104.53 211.727C104.848 211.461 105.123 211.147 105.344 210.796C105.667 210.288 105.882 209.718 105.974 209.123C106.065 208.528 106.032 207.92 105.877 207.338C105.721 206.757 105.446 206.214 105.07 205.744C104.693 205.274 104.223 204.887 103.689 204.609C103.042 204.282 102.653 204.205 102.66 204.205Z" fill="#222222"/>
<path d="M106.192 199.471C106.188 199.42 106.188 199.369 106.192 199.318C106.192 199.2 106.192 199.047 106.192 198.845C106.192 198.414 106.192 197.796 106.192 196.989L106.226 197.031L102.215 196.155L102.285 196.12L101.228 198.366V198.407H101.179C100.291 198.446 99.4121 198.603 98.5653 198.873H98.5167L98.4819 198.838L96.7161 197.093H96.737L93.261 199.304L93.3027 199.186L94.1369 201.522V201.578L94.0952 201.626C93.4955 202.28 92.9837 203.009 92.5727 203.795V203.851H92.5658H90.0909L90.1951 203.76C89.9171 205.019 89.6112 206.374 89.3053 207.765L89.2427 207.633L91.4813 208.696L91.5438 208.731V208.801C91.5831 209.685 91.735 210.561 91.9957 211.408V211.477L91.9401 211.533L90.1882 213.292V213.139L92.385 216.615L92.239 216.559L94.5749 215.725H94.6514L94.707 215.773C95.3536 216.376 96.0785 216.888 96.8621 217.296C96.8968 217.345 96.7995 217.185 96.9316 217.407V219.882L96.8343 219.757L100.839 220.661L100.7 220.73C101.054 219.972 101.395 219.229 101.763 218.485L101.798 218.422H101.874C102.757 218.389 103.632 218.237 104.475 217.97H104.551L104.6 218.019L106.359 219.778H106.206L109.682 217.588L109.633 217.72C109.348 216.928 109.077 216.149 108.799 215.384V215.322L108.847 215.266C109.451 214.616 109.965 213.889 110.377 213.104V213.048H112.921L112.824 213.132C113.144 211.741 113.443 210.393 113.728 209.12L113.783 209.232L111.545 208.161H111.496V208.105C111.466 207.218 111.316 206.339 111.051 205.491V205.443V205.408L112.81 203.649V203.747L110.627 200.271H110.697L108.354 201.084C107.862 200.628 107.329 200.218 106.762 199.86L106.331 199.603L106.192 199.513L106.345 199.582L106.783 199.819C107.363 200.165 107.908 200.568 108.409 201.021H108.368L110.697 200.173H110.738V200.215L112.949 203.691V203.74L112.907 203.788L111.162 205.547V205.464C111.438 206.326 111.595 207.222 111.628 208.126L111.579 208.05L113.825 209.107L113.894 209.141V209.218C113.616 210.483 113.317 211.811 113.005 213.222V213.306H110.439L110.537 213.25C110.118 214.053 109.594 214.796 108.979 215.461V215.349C109.251 216.114 109.536 216.893 109.814 217.685L109.848 217.776L109.765 217.824L106.289 220.021L106.206 220.077L106.136 220.007L104.377 218.255H104.502C103.637 218.53 102.74 218.687 101.833 218.721L101.937 218.652C101.589 219.389 101.242 220.139 100.873 220.89L100.832 220.981H100.734L96.73 220.084H96.6327V217.414C96.7648 217.637 96.6327 217.477 96.7022 217.525C95.8987 217.108 95.1551 216.584 94.4915 215.968H94.6166L92.2807 216.795L92.1834 216.83L92.1347 216.747L89.9379 213.271L89.8823 213.187L89.9518 213.118L91.7037 211.359V211.484C91.4317 210.619 91.2751 209.721 91.2379 208.815L91.3075 208.912L89.0898 207.883L89.0063 207.841V207.751L89.9101 203.747V203.656H92.5658L92.4754 203.712C92.8933 202.911 93.4171 202.169 94.0326 201.508V201.612L93.2053 199.269V199.193L93.2749 199.151L96.7509 196.961L96.8134 196.927L96.869 196.975L98.6209 198.734H98.5375C99.3984 198.465 100.292 198.313 101.193 198.282L101.131 198.324L102.208 196.085V196.037H102.257L106.254 196.961H106.289C106.289 197.761 106.289 198.352 106.289 198.804C106.289 199.005 106.289 199.165 106.289 199.276C106.261 199.344 106.229 199.409 106.192 199.471Z" fill="#222222"/>
<path fill-rule="evenodd" clip-rule="evenodd" d="M98.6279 168.284C99.5059 168.743 100.319 169.316 101.047 169.988L103.633 169.07L106.06 172.901L104.127 174.847C104.423 175.794 104.594 176.776 104.634 177.767L107.109 178.942L106.115 183.349H103.376C102.915 184.228 102.34 185.041 101.666 185.769L102.591 188.355L98.753 190.781L96.8065 188.911C95.8618 189.207 94.8825 189.377 93.8936 189.419L92.7187 191.893L88.2903 190.899V188.16C87.4112 187.701 86.5975 187.125 85.871 186.45L83.2848 187.375L80.8516 183.537L82.7912 181.598C82.4961 180.65 82.3255 179.669 82.2838 178.678L79.8088 177.503L80.796 173.074H83.5282C83.9851 172.195 84.5579 171.382 85.2314 170.655L84.3207 168.055L88.1512 165.622L90.0978 167.561C91.0446 167.265 92.0263 167.094 93.0176 167.054L94.1925 164.579L98.6209 165.573V168.312L98.6279 168.284ZM94.7209 173.498C93.7819 173.288 92.8017 173.361 91.9042 173.708C91.0067 174.055 90.2322 174.66 89.6784 175.447C89.1247 176.234 88.8166 177.167 88.7931 178.129C88.7697 179.091 89.0319 180.038 89.5466 180.851C90.0614 181.664 90.8055 182.306 91.6851 182.696C92.5646 183.086 93.5401 183.207 94.4882 183.042C95.4362 182.878 96.3144 182.437 97.0116 181.774C97.7088 181.111 98.1939 180.256 98.4054 179.317C98.546 178.693 98.5623 178.048 98.4532 177.417C98.3441 176.787 98.1117 176.184 97.7695 175.644C97.4273 175.104 96.9819 174.636 96.4588 174.268C95.9357 173.9 95.3451 173.638 94.7209 173.498Z" fill="#4E7BBE"/>
<g opacity="0.8">
<path fill-rule="evenodd" clip-rule="evenodd" d="M98.6279 168.284C99.5059 168.743 100.319 169.316 101.047 169.988L103.633 169.07L106.06 172.901L104.127 174.847C104.423 175.794 104.594 176.776 104.634 177.767L107.109 178.942L106.115 183.349H103.376C102.915 184.228 102.34 185.041 101.666 185.769L102.591 188.355L98.753 190.781L96.8065 188.911C95.8618 189.207 94.8825 189.377 93.8936 189.419L92.7187 191.893L88.2903 190.899V188.16C87.4112 187.701 86.5975 187.125 85.871 186.45L83.2848 187.375L80.8516 183.537L82.7912 181.598C82.4961 180.65 82.3255 179.669 82.2838 178.678L79.8088 177.503L80.796 173.074H83.5282C83.9851 172.195 84.5579 171.382 85.2314 170.655L84.3207 168.055L88.1512 165.622L90.0978 167.561C91.0446 167.265 92.0263 167.094 93.0176 167.054L94.1925 164.579L98.6209 165.573V168.312L98.6279 168.284ZM94.7209 173.498C93.7819 173.288 92.8017 173.361 91.9042 173.708C91.0067 174.055 90.2322 174.66 89.6784 175.447C89.1247 176.234 88.8166 177.167 88.7931 178.129C88.7697 179.091 89.0319 180.038 89.5466 180.851C90.0614 181.664 90.8056 182.306 91.6851 182.696C92.5646 183.086 93.5401 183.207 94.4882 183.042C95.4362 182.878 96.3144 182.437 97.0116 181.774C97.7088 181.111 98.1939 180.256 98.4054 179.317C98.546 178.693 98.5623 178.048 98.4532 177.417C98.3441 176.787 98.1117 176.184 97.7695 175.644C97.4273 175.104 96.9819 174.636 96.4588 174.268C95.9357 173.9 95.3451 173.638 94.7209 173.498Z" fill="white"/>
</g>
<path fill-rule="evenodd" clip-rule="evenodd" d="M82.6104 194.382C83.1154 194.648 83.583 194.98 84.0008 195.369L85.5094 194.834L86.8998 197.066L85.7736 198.199C85.9472 198.749 86.0477 199.319 86.0725 199.895L87.5116 200.59L87.0041 203.163H85.4051C85.1378 203.667 84.806 204.134 84.4179 204.553L84.9533 206.055L82.7147 207.445L81.5885 206.319C81.0358 206.49 80.4633 206.588 79.8853 206.611L79.1901 208.057L76.6109 207.473V205.881C76.1048 205.613 75.6372 205.279 75.2205 204.887L73.7119 205.422L72.3215 203.19L73.4477 202.057C73.2764 201.507 73.1782 200.937 73.1557 200.361L71.7097 199.666L72.2867 197.087H73.7953C74.0661 196.583 74.4001 196.115 74.7894 195.696L74.2541 194.195L76.4857 192.804L77.6189 193.937C78.168 193.76 78.7387 193.66 79.3152 193.638L80.0104 192.199L82.5896 192.776V194.375L82.6104 194.382ZM80.3371 197.413C79.7897 197.289 79.2178 197.33 78.6937 197.532C78.1697 197.733 77.7172 198.085 77.3934 198.543C77.0696 199.002 76.8892 199.546 76.8749 200.107C76.8606 200.669 77.0131 201.221 77.3132 201.696C77.6132 202.17 78.0472 202.545 78.5603 202.772C79.0734 203 79.6425 203.07 80.1956 202.974C80.7486 202.878 81.2607 202.62 81.6671 202.233C82.0735 201.846 82.3558 201.347 82.4783 200.799C82.6423 200.066 82.509 199.298 82.1076 198.663C81.7062 198.029 81.0695 197.579 80.3371 197.413Z" fill="#4E7BBE"/>
<g opacity="0.4">
<path fill-rule="evenodd" clip-rule="evenodd" d="M82.6104 194.382C83.1154 194.648 83.583 194.98 84.0008 195.369L85.5094 194.834L86.8998 197.066L85.7736 198.199C85.9472 198.749 86.0477 199.319 86.0725 199.895L87.5116 200.59L87.0041 203.163H85.4051C85.1378 203.667 84.806 204.134 84.4179 204.553L84.9533 206.055L82.7147 207.445L81.5885 206.319C81.0358 206.49 80.4633 206.588 79.8853 206.611L79.1901 208.057L76.6109 207.473V205.881C76.1048 205.613 75.6372 205.279 75.2205 204.887L73.7119 205.422L72.3215 203.19L73.4477 202.057C73.2764 201.507 73.1782 200.937 73.1557 200.361L71.7097 199.666L72.2867 197.087H73.7953C74.0661 196.583 74.4001 196.115 74.7894 195.696L74.2541 194.195L76.4857 192.804L77.6189 193.937C78.168 193.76 78.7387 193.66 79.3152 193.638L80.0104 192.199L82.5896 192.776V194.375L82.6104 194.382ZM80.3371 197.413C79.7897 197.289 79.2178 197.33 78.6937 197.532C78.1697 197.733 77.7172 198.085 77.3934 198.543C77.0696 199.002 76.8892 199.546 76.8749 200.107C76.8606 200.669 77.0131 201.221 77.3132 201.696C77.6132 202.17 78.0472 202.545 78.5603 202.772C79.0734 203 79.6425 203.07 80.1956 202.974C80.7486 202.878 81.2607 202.62 81.6671 202.233C82.0735 201.846 82.3558 201.347 82.4783 200.799C82.6423 200.066 82.509 199.298 82.1076 198.663C81.7062 198.029 81.0695 197.579 80.3371 197.413Z" fill="white"/>
</g>
<path d="M236.145 168.799C237.603 168.38 238.879 167.484 239.77 166.256C240.661 165.028 241.115 163.537 241.06 162.021C240.977 160.63 240.469 159.337 240.525 157.975C240.615 155.889 242.02 154.075 243.076 152.239C244.133 150.404 244.835 147.992 243.605 146.268C242.812 145.148 241.401 144.648 240.435 143.674C239.468 142.701 239.044 141.401 238.53 140.157C238.015 138.912 237.369 137.626 236.201 136.966C235.033 136.305 233.246 136.59 232.767 137.849" fill="#222222"/>
<path d="M223.52 134.505C225.606 133.177 226.106 130.111 224.973 127.921C223.84 125.731 221.449 124.397 219.015 124C217.245 123.731 215.436 123.884 213.736 124.447C212.036 125.01 210.494 125.967 209.234 127.24C207.892 128.63 206.801 130.431 204.979 131.064C203.38 131.627 201.608 131.119 199.925 131.342C198.803 131.544 197.741 131.996 196.816 132.662C195.891 133.328 195.127 134.193 194.579 135.193C193.502 137.204 192.856 139.418 192.681 141.693C192.438 143.779 192.271 146.038 190.839 147.547C189.407 149.055 187.217 149.333 185.479 150.383C183.878 151.438 182.754 153.078 182.346 154.951C181.938 156.824 182.279 158.783 183.296 160.408C183.991 161.409 184.978 162.334 185.055 163.55C185.131 164.767 184.415 165.636 184.075 166.72C183.899 167.406 183.873 168.121 183.997 168.818C184.122 169.514 184.394 170.176 184.796 170.758C185.198 171.341 185.72 171.83 186.327 172.194C186.934 172.557 187.612 172.787 188.315 172.866C189.761 172.949 191.305 172.386 192.605 173.033C193.905 173.679 194.37 175.229 195.191 176.411C196.038 177.551 197.25 178.366 198.625 178.72C200 179.075 201.455 178.947 202.748 178.358C203.811 177.837 204.833 176.968 205.994 177.058C207.155 177.148 208.08 178.142 209.262 178.365C210.784 178.657 212.223 177.538 213.127 176.279C214.031 175.021 214.663 173.54 215.817 172.511C217.333 171.163 219.46 170.836 221.379 170.175C223.499 169.442 225.438 168.263 227.063 166.717C228.688 165.17 229.963 163.293 230.801 161.212C231.638 159.131 232.019 156.894 231.918 154.653C231.817 152.412 231.236 150.218 230.215 148.221" fill="#222222"/>
<path d="M228.129 137.237C228.958 137.327 229.723 137.725 230.273 138.352C230.822 138.979 231.117 139.789 231.098 140.623L229.11 185.581C229.026 190.892 221.268 193.875 215.581 193.743C209.839 193.611 209.658 190.795 209.582 185.741C209.463 177.301 209.477 174.131 209.47 174.18C209.463 174.228 202.219 172.963 200.739 163.495C200.002 158.781 200.252 151.064 200.662 144.759C201.038 139.079 204.833 132.12 210.471 132.732L228.129 137.237Z" fill="#FFBE9D"/>
<path d="M202.713 150.884C202.711 151.2 202.831 151.505 203.049 151.734C203.267 151.964 203.565 152.1 203.881 152.114C204.035 152.126 204.19 152.108 204.337 152.059C204.484 152.011 204.62 151.933 204.736 151.832C204.853 151.73 204.948 151.606 205.016 151.467C205.084 151.328 205.123 151.177 205.132 151.023C205.138 150.707 205.02 150.401 204.803 150.171C204.586 149.941 204.287 149.805 203.971 149.792C203.817 149.78 203.661 149.798 203.514 149.847C203.367 149.895 203.23 149.973 203.113 150.074C202.996 150.176 202.9 150.3 202.832 150.439C202.763 150.578 202.723 150.729 202.713 150.884Z" fill="#222222"/>
<path d="M202.296 148.777C202.449 148.937 203.366 148.256 204.673 148.263C205.98 148.27 206.933 148.923 207.079 148.763C207.225 148.603 206.995 148.409 206.578 148.103C206.013 147.709 205.341 147.5 204.652 147.505C203.974 147.499 203.311 147.711 202.762 148.11C202.358 148.416 202.219 148.708 202.296 148.777Z" fill="#222222"/>
<path d="M215.734 150.884C215.732 151.2 215.852 151.505 216.07 151.734C216.288 151.964 216.586 152.1 216.902 152.114C217.056 152.126 217.211 152.108 217.358 152.059C217.505 152.011 217.641 151.933 217.757 151.832C217.874 151.73 217.969 151.606 218.037 151.467C218.105 151.328 218.144 151.177 218.153 151.023C218.159 150.705 218.04 150.399 217.821 150.168C217.603 149.938 217.302 149.803 216.985 149.792C216.831 149.78 216.676 149.799 216.529 149.847C216.382 149.896 216.246 149.973 216.13 150.075C216.013 150.176 215.918 150.3 215.85 150.439C215.782 150.578 215.743 150.729 215.734 150.884Z" fill="#222222"/>
<path d="M215.136 149.048C215.289 149.208 216.207 148.527 217.514 148.534C218.821 148.541 219.773 149.229 219.919 149.034C220.065 148.84 219.836 148.68 219.419 148.374C218.854 147.98 218.181 147.772 217.493 147.776C216.815 147.774 216.153 147.986 215.602 148.381C215.199 148.694 215.06 148.979 215.136 149.048Z" fill="#222222"/>
<path d="M210.374 158.726C209.698 158.51 208.997 158.38 208.288 158.336C207.955 158.301 207.635 158.232 207.593 158.009C207.566 157.665 207.646 157.32 207.823 157.022C208.136 156.216 208.469 155.368 208.81 154.485C210.2 150.87 211.187 147.894 211.041 147.846C210.895 147.797 209.651 150.675 208.261 154.283C207.934 155.18 207.614 156.028 207.315 156.842C207.101 157.242 207.037 157.705 207.134 158.148C207.182 158.266 207.257 158.372 207.352 158.456C207.447 158.54 207.561 158.602 207.684 158.635C207.869 158.687 208.061 158.715 208.254 158.719C208.958 158.808 209.67 158.811 210.374 158.726Z" fill="#222222"/>
<path d="M209.436 174.18C213.892 174.259 218.284 173.102 222.123 170.836C222.123 170.836 218.911 177.51 209.436 176.599V174.18Z" fill="#EB996E"/>
<path d="M210.916 161.875C211.164 161.567 211.484 161.327 211.849 161.175C212.213 161.023 212.609 160.965 213.002 161.006C213.29 161.031 213.57 161.115 213.825 161.252C214.08 161.39 214.303 161.578 214.483 161.805C214.654 162.025 214.755 162.29 214.774 162.568C214.792 162.845 214.727 163.122 214.587 163.362C214.375 163.595 214.099 163.761 213.793 163.837C213.488 163.914 213.167 163.899 212.87 163.793C212.254 163.57 211.688 163.23 211.201 162.792C211.058 162.684 210.933 162.552 210.833 162.403C210.785 162.331 210.759 162.246 210.759 162.16C210.759 162.073 210.785 161.988 210.833 161.916" fill="#4E7BBE"/>
<path d="M214.225 159.636C214.01 159.636 214.003 161.027 212.786 162.049C211.57 163.07 210.061 162.89 210.054 163.091C210.054 163.175 210.388 163.362 211.027 163.383C211.858 163.4 212.667 163.119 213.308 162.591C213.927 162.089 214.326 161.366 214.42 160.575C214.469 159.984 214.309 159.629 214.225 159.636Z" fill="#222222"/>
<path d="M214.552 146.761C214.677 147.116 215.984 146.949 217.514 147.137C219.043 147.324 220.294 147.748 220.489 147.429C220.586 147.276 220.371 146.942 219.87 146.594C219.203 146.174 218.449 145.91 217.665 145.823C216.882 145.735 216.088 145.825 215.345 146.087C214.781 146.309 214.496 146.594 214.552 146.761Z" fill="#222222"/>
<path d="M202.783 144.995C203.012 145.294 203.916 144.995 204.993 144.995C206.071 144.995 206.995 145.197 207.204 144.891C207.301 144.738 207.155 144.439 206.752 144.161C206.216 143.821 205.591 143.649 204.956 143.668C204.322 143.686 203.708 143.894 203.193 144.265C202.81 144.543 202.685 144.849 202.783 144.995Z" fill="#222222"/>
<path d="M221.873 134.157C222.951 133.402 224.178 132.887 225.472 132.648C226.766 132.408 228.097 132.448 229.374 132.767C231.897 133.462 233.99 135.77 234.08 138.328C234.136 139.997 233.385 141.804 234.157 143.285C234.928 144.766 236.597 145.301 237.834 146.344C238.783 147.173 239.426 148.295 239.663 149.532C239.9 150.77 239.716 152.05 239.141 153.171C238.106 155.069 235.936 156.459 235.756 158.6C235.582 160.616 237.278 162.32 237.695 164.301C238.147 166.484 236.938 168.743 235.207 170.196C233.475 171.649 231.279 172.449 229.137 173.213C227.469 173.818 225.661 174.43 223.944 174.034C222.93 173.762 222.019 173.195 221.326 172.406C220.633 171.616 220.19 170.64 220.051 169.598C219.948 168.56 220.07 167.512 220.41 166.526C220.749 165.54 221.298 164.638 222.019 163.884C223.235 162.542 224.945 161.409 225.237 159.636C225.689 156.855 222.408 154.624 222.61 151.843C222.714 150.411 223.729 149.222 224.57 148.04C225.411 146.858 226.148 145.378 225.627 144.036C224.931 142.284 222.658 141.825 221.268 140.56C220.695 140.021 220.283 139.333 220.078 138.573C219.873 137.813 219.883 137.011 220.107 136.257C220.36 135.503 220.813 134.833 221.418 134.317C222.023 133.801 222.757 133.46 223.541 133.33" fill="#222222"/>
<path d="M222.895 132.023C222.899 132.975 222.694 133.916 222.293 134.78C221.892 135.643 221.305 136.408 220.575 137.019C219.844 137.63 218.988 138.072 218.067 138.314C217.147 138.556 216.184 138.592 215.247 138.419C213.801 138.155 212.216 137.425 210.965 138.196C209.714 138.968 209.575 140.977 208.427 141.999C206.759 143.452 204.11 142.089 201.99 142.694C200.356 143.181 199.334 144.738 198.243 146.059C197.151 147.38 195.532 148.624 193.891 148.145C193.94 146.669 194.159 145.204 194.544 143.779C194.936 142.345 195.81 141.09 197.019 140.226C197.735 139.854 198.431 139.446 199.105 139.003C200.495 137.911 200.78 135.999 201.615 134.47C202.166 133.485 202.945 132.647 203.885 132.023C204.826 131.399 205.902 131.008 207.023 130.883C208.886 130.695 210.805 131.251 212.585 130.792C213.927 130.459 215.101 129.59 216.457 129.326C219.106 128.825 221.567 130.716 223.485 132.614" fill="#222222"/>
<path d="M240.184 154.652C240.358 154.316 240.433 153.937 240.4 153.56C240.314 153.054 240.09 152.582 239.753 152.196C239.415 151.809 238.978 151.523 238.488 151.37C237.808 151.13 237.111 150.942 236.402 150.807C235.556 150.654 234.753 150.322 234.046 149.834C233.668 149.528 233.362 149.143 233.15 148.706C232.939 148.268 232.827 147.789 232.822 147.303C232.812 146.31 232.861 145.316 232.968 144.328C232.995 143.84 232.97 143.35 232.891 142.868C232.8 142.417 232.61 141.992 232.335 141.624C231.713 140.983 230.923 140.53 230.055 140.317C229.241 140.084 228.461 139.747 227.733 139.316C227.1 138.936 226.524 138.468 226.023 137.925C225.291 137.147 224.724 136.23 224.354 135.228C224.249 134.96 224.168 134.683 224.111 134.4C224.069 134.206 224.056 134.109 224.069 134.102C224.083 134.095 224.195 134.498 224.48 135.179C224.992 136.367 225.77 137.42 226.755 138.258C227.74 139.096 228.905 139.696 230.159 140.011C231.091 140.231 231.94 140.713 232.606 141.401C232.92 141.811 233.139 142.286 233.246 142.792C233.329 143.301 233.357 143.819 233.329 144.335C233.226 145.312 233.174 146.293 233.177 147.276C233.176 147.714 233.272 148.147 233.458 148.543C233.644 148.94 233.916 149.291 234.254 149.57C234.92 150.033 235.676 150.352 236.472 150.508C237.182 150.659 237.88 150.866 238.557 151.127C239.141 151.35 239.651 151.73 240.031 152.225C240.307 152.607 240.473 153.056 240.511 153.525C240.529 153.823 240.469 154.12 240.337 154.387C240.275 154.582 240.191 154.659 240.184 154.652Z" fill="#455A64"/>
<path d="M184.436 160.561L184.276 160.484C184.133 160.394 184.012 160.273 183.922 160.13C183.79 159.828 183.739 159.497 183.773 159.169C183.808 158.842 183.926 158.528 184.117 158.26C184.353 157.843 184.706 157.505 185.132 157.286C185.625 157.041 186.134 156.828 186.654 156.647C187.238 156.452 187.779 156.145 188.246 155.743C188.72 155.248 189.037 154.624 189.157 153.949C189.31 153.254 189.358 152.462 189.49 151.655C189.59 150.79 189.913 149.966 190.429 149.264C191.527 147.818 193.335 147.046 194.684 145.684C195.357 144.967 195.862 144.11 196.164 143.174C196.486 142.186 196.718 141.172 196.86 140.143C197.152 138.057 197.45 135.735 198.848 133.83C199.529 132.873 200.552 132.214 201.705 131.988C202.8 131.832 203.914 131.858 205 132.065C206.014 132.261 207.05 132.322 208.08 132.245C209.049 132.133 209.944 131.671 210.597 130.945C211.89 129.555 212.627 127.678 214.219 126.719C214.928 126.286 215.718 126.004 216.541 125.89C217.364 125.777 218.202 125.834 219.002 126.058C220.327 126.435 221.454 127.313 222.144 128.505C222.666 129.391 222.948 130.397 222.964 131.425C222.983 132.068 222.882 132.71 222.665 133.316C222.593 133.53 222.497 133.735 222.38 133.928C222.38 133.928 222.464 133.712 222.596 133.295C222.777 132.692 222.855 132.062 222.825 131.432C222.785 130.435 222.494 129.464 221.977 128.609C221.297 127.478 220.206 126.653 218.932 126.308C218.166 126.106 217.366 126.064 216.583 126.183C215.8 126.303 215.049 126.582 214.379 127.004C213.65 127.504 213.029 128.145 212.55 128.888C212.032 129.696 211.461 130.47 210.84 131.203C210.491 131.583 210.082 131.905 209.63 132.155C209.158 132.396 208.648 132.554 208.122 132.621C207.062 132.702 205.996 132.643 204.952 132.447C203.904 132.245 202.831 132.217 201.775 132.364C200.711 132.579 199.769 133.19 199.14 134.074C198.506 134.97 198.047 135.977 197.784 137.042C197.534 138.092 197.341 139.155 197.207 140.226C197.069 141.274 196.837 142.307 196.512 143.313C196.193 144.296 195.656 145.194 194.941 145.941C193.516 147.331 191.729 148.11 190.686 149.479C190.198 150.138 189.886 150.911 189.782 151.725C189.65 152.517 189.595 153.296 189.421 154.033C189.29 154.755 188.94 155.42 188.42 155.938C187.928 156.354 187.359 156.668 186.744 156.862C186.227 157.033 185.721 157.235 185.229 157.467C184.827 157.666 184.49 157.975 184.256 158.357C184.071 158.608 183.952 158.9 183.908 159.208C183.865 159.517 183.898 159.831 184.005 160.123C184.12 160.295 184.266 160.443 184.436 160.561Z" fill="#455A64"/>
<path d="M161.21 225.757L177.999 224.22C177.999 224.22 188.329 197.003 201.065 190.406L209.317 204.817L191.652 237.999H157.17L161.21 225.757Z" fill="#4E7BBE"/>
<path opacity="0.3" d="M161.21 225.757L177.999 224.22C177.999 224.22 188.329 197.003 201.065 190.406L209.317 204.817L191.652 237.999H157.17L161.21 225.757Z" fill="black"/>
<path d="M167.842 233.404C168.671 231.53 169.726 229.765 170.984 228.148C170.143 230.016 169.089 231.779 167.842 233.404Z" fill="#F5F5F5"/>
<path d="M179.737 233.077C178.279 231.65 176.996 230.057 175.913 228.329C176.689 228.992 177.378 229.751 177.964 230.588C178.649 231.346 179.244 232.182 179.737 233.077Z" fill="#F5F5F5"/>
<path d="M181.801 226.841C181.56 225.382 181.56 223.893 181.801 222.434C182.042 223.893 182.042 225.382 181.801 226.841Z" fill="#F5F5F5"/>
<path d="M175.892 236.567C175.306 236.404 174.76 236.122 174.286 235.74C173.452 235.19 172.826 234.683 172.896 234.6C173.48 234.771 174.026 235.054 174.502 235.434C175.294 235.976 175.948 236.483 175.892 236.567Z" fill="#F5F5F5"/>
<path d="M185.535 211.554C185.259 212.603 184.87 213.62 184.374 214.585C183.986 215.598 183.487 216.566 182.886 217.47C183.153 216.419 183.54 215.401 184.04 214.439C184.432 213.425 184.933 212.458 185.535 211.554Z" fill="#F5F5F5"/>
<path d="M192.34 200.528C192.396 200.604 191.798 201.16 190.999 201.772C190.544 202.188 190.013 202.511 189.434 202.725C189.379 202.641 189.977 202.085 190.776 201.48C191.229 201.062 191.761 200.738 192.34 200.528Z" fill="#F5F5F5"/>
<path d="M217.451 235.816L226.113 200.841C226.838 197.906 228.653 195.358 231.189 193.714C233.725 192.07 236.793 191.454 239.767 191.991C242.823 192.544 245.541 194.268 247.344 196.796C249.147 199.325 249.89 202.457 249.416 205.526L244.119 239.709C243.486 243.208 241.779 246.422 239.235 248.905C236.691 251.389 233.436 253.017 229.923 253.565L223.041 254.635L217.451 235.816Z" fill="#4E7BBE"/>
<path d="M244.745 189.731C243.841 188.992 242.784 188.462 241.651 188.181C240.425 187.896 239.151 187.896 237.925 188.181C236.432 188.558 235.046 189.271 233.872 190.267C231.334 192.394 229.958 195.133 229.005 197.094C228.54 198.074 228.185 198.88 227.935 199.436C227.82 199.734 227.678 200.02 227.511 200.291C227.579 199.981 227.677 199.679 227.803 199.388C228.018 198.811 228.331 197.997 228.769 196.982C229.283 195.805 229.877 194.664 230.549 193.569C231.383 192.223 232.422 191.015 233.629 189.989C234.841 188.947 236.282 188.206 237.834 187.827C239.109 187.536 240.433 187.553 241.7 187.875C242.55 188.094 243.349 188.479 244.05 189.008C244.236 189.154 244.411 189.314 244.571 189.488C244.696 189.662 244.752 189.724 244.745 189.731Z" fill="#222222"/>
<path d="M195.685 197.601C195.616 197.719 195.534 197.828 195.441 197.928L194.704 198.818C194.058 199.589 193.147 200.716 192.104 202.168C189.333 205.928 187.323 210.193 186.188 214.724C184.985 220.056 184.923 225.047 184.721 228.628C184.631 230.421 184.547 231.874 184.471 232.875C184.429 233.348 184.394 233.73 184.367 234.029C184.358 234.165 184.34 234.3 184.311 234.433C184.291 234.299 184.291 234.163 184.311 234.029C184.311 233.724 184.311 233.334 184.346 232.868C184.346 231.819 184.422 230.38 184.478 228.621C184.617 225.047 184.631 220.035 185.868 214.647C187.004 210.072 189.065 205.778 191.924 202.029C193.001 200.583 193.947 199.471 194.621 198.727C194.955 198.352 195.233 198.074 195.413 197.886C195.495 197.783 195.586 197.688 195.685 197.601Z" fill="#222222"/>
<path d="M251.175 197.525C250.223 191.268 246.775 189.773 243.194 187.827C242.027 187.187 236.388 185.741 231.918 184.649C231.487 181.945 230.723 177.093 230.528 176.071C230.292 174.632 207.753 178.226 207.468 178.768C207.281 179.123 206.773 184.74 206.432 188.501L201.038 190.385L194.023 199.339L190.359 204.539C188.201 207.539 186.658 210.937 185.82 214.536C185.033 218.523 184.694 222.585 184.812 226.646L183.72 249.588L230.91 262.922L234.525 239.661L246.691 223.101C247.727 216.406 252.343 205.213 251.175 197.525Z" fill="#4E7BBE"/>
<path d="M210.93 189.203C210.765 188.686 210.661 188.152 210.617 187.611C210.471 186.624 210.291 185.254 210.117 183.739C210.033 182.988 209.957 182.272 209.881 181.598C209.809 181.011 209.767 180.422 209.755 179.832C209.749 179.415 209.868 179.006 210.096 178.657C210.277 178.421 210.43 178.358 210.444 178.372C210.458 178.386 210.339 178.497 210.214 178.733C210.057 179.077 209.987 179.455 210.013 179.832C210.013 180.318 210.138 180.902 210.214 181.563C210.291 182.223 210.381 182.953 210.478 183.697C210.652 185.213 210.791 186.589 210.875 187.583C210.955 188.119 210.974 188.663 210.93 189.203Z" fill="#222222"/>
<path d="M216.944 187.785C216.71 187.324 216.541 186.833 216.443 186.325C215.814 183.918 215.58 181.424 215.748 178.942C215.753 178.427 215.828 177.914 215.971 177.419C216.082 177.419 215.88 179.762 216.151 182.626C216.423 185.491 217.055 187.757 216.944 187.785Z" fill="#222222"/>
<path d="M228.129 186.13C228.272 184.402 228.228 182.663 227.997 180.944C227.642 179.245 227.097 177.592 226.371 176.015C226.72 176.402 227 176.847 227.198 177.329C228.306 179.59 228.745 182.12 228.463 184.622C228.431 185.139 228.318 185.648 228.129 186.13Z" fill="#222222"/>
<path d="M196.15 206.611C197.225 204.563 198.621 202.702 200.287 201.098C198.999 203.002 197.618 204.842 196.15 206.611Z" fill="#F5F5F5"/>
<path d="M206.738 197.949C205.39 196.593 204.221 195.07 203.262 193.416C203.97 194.057 204.598 194.78 205.132 195.571C205.765 196.293 206.305 197.092 206.738 197.949Z" fill="#F5F5F5"/>
<path d="M217.833 192.54C217.155 193.346 216.413 194.097 215.616 194.785C214.904 195.563 214.135 196.286 213.315 196.948C213.874 196.044 214.565 195.228 215.366 194.528C216.082 193.744 216.914 193.073 217.833 192.54Z" fill="#F5F5F5"/>
<path d="M214.719 185.922C214.072 185.582 213.486 185.135 212.988 184.601C212.407 184.152 211.902 183.612 211.493 183.002C212.139 183.349 212.726 183.798 213.231 184.33C213.811 184.776 214.313 185.313 214.719 185.922Z" fill="#F5F5F5"/>
<path d="M224.445 180.735C223.703 181.083 222.913 181.317 222.102 181.431C221.318 181.657 220.506 181.77 219.69 181.764C220.43 181.42 221.217 181.186 222.026 181.069C222.812 180.842 223.627 180.73 224.445 180.735Z" fill="#F5F5F5"/>
<path d="M226.391 196.134C226.168 195.345 226.065 194.527 226.086 193.708C225.986 192.896 226.004 192.074 226.141 191.268C226.364 192.057 226.467 192.874 226.447 193.694C226.547 194.506 226.528 195.328 226.391 196.134Z" fill="#F5F5F5"/>
<path d="M222.846 203.51C222.331 202.634 221.92 201.701 221.622 200.729C221.219 199.786 220.925 198.799 220.746 197.789C221.661 199.618 222.361 201.548 222.832 203.538L222.846 203.51Z" fill="#F5F5F5"/>
<path d="M213.21 208.759C212.657 207.832 212.209 206.845 211.876 205.818C211.425 204.833 211.089 203.8 210.875 202.739C211.424 203.67 211.871 204.659 212.209 205.686C212.655 206.671 212.99 207.701 213.21 208.759Z" fill="#F5F5F5"/>
<path d="M204.145 214.675C203.503 212.767 203.097 210.787 202.935 208.78C203.31 209.716 203.571 210.694 203.714 211.693C203.974 212.666 204.119 213.667 204.145 214.675Z" fill="#F5F5F5"/>
<path d="M193.37 214.911C192.298 213.251 191.43 211.468 190.783 209.6C191.855 211.261 192.723 213.044 193.37 214.911Z" fill="#F5F5F5"/>
<path d="M193.14 221.822C192.257 222.45 191.311 222.983 190.317 223.414C189.372 223.949 188.369 224.375 187.328 224.686C188.209 224.05 189.158 223.514 190.158 223.087C191.101 222.556 192.102 222.131 193.14 221.822Z" fill="#F5F5F5"/>
<path d="M193.272 232.75C192.8 231.968 192.468 231.109 192.292 230.213C191.999 229.352 191.86 228.446 191.882 227.536C192.215 228.372 192.469 229.238 192.64 230.122C192.932 230.977 193.144 231.856 193.272 232.75Z" fill="#F5F5F5"/>
<path d="M191.04 240.425C190.216 239.904 189.456 239.288 188.774 238.59C188.014 237.984 187.334 237.283 186.751 236.504C187.575 237.026 188.336 237.642 189.017 238.34C189.778 238.946 190.457 239.647 191.04 240.425Z" fill="#F5F5F5"/>
<path d="M205.236 235.183C205.236 235.288 203.665 235.747 201.802 236.574C199.939 237.401 198.521 238.249 198.458 238.159C199.407 237.342 200.489 236.693 201.656 236.24C202.779 235.683 203.991 235.326 205.236 235.183Z" fill="#F5F5F5"/>
<path d="M201.086 231.381C200.639 230.636 200.295 229.834 200.064 228.996C199.717 228.201 199.483 227.361 199.369 226.5C199.815 227.242 200.157 228.043 200.384 228.878C200.736 229.675 200.972 230.517 201.086 231.381Z" fill="#F5F5F5"/>
<path d="M209.505 221.982C208.981 223.159 208.345 224.283 207.607 225.339C206.971 226.472 206.231 227.542 205.396 228.537C206.562 226.242 207.937 224.059 209.505 222.016V221.982Z" fill="#F5F5F5"/>
<path d="M218.556 222.878C217.641 221.94 216.862 220.878 216.241 219.722C215.517 218.63 214.947 217.445 214.545 216.198C214.642 216.156 215.449 217.699 216.554 219.541C217.66 221.384 218.64 222.823 218.556 222.878Z" fill="#F5F5F5"/>
<path d="M223.958 213.938C223.115 214.268 222.215 214.429 221.31 214.411C220.412 214.516 219.503 214.445 218.633 214.202C219.516 214.085 220.406 214.034 221.296 214.049C222.179 213.949 223.069 213.911 223.958 213.938Z" fill="#F5F5F5"/>
<path d="M236.84 203.781C234.634 205.108 232.306 206.221 229.888 207.104C232.098 205.785 234.426 204.673 236.84 203.781Z" fill="#F5F5F5"/>
<path d="M237.695 197.316C238.404 195.361 239.337 193.495 240.476 191.754C240.182 192.752 239.771 193.711 239.253 194.612C238.838 195.569 238.316 196.477 237.695 197.316Z" fill="#F5F5F5"/>
<path d="M245.871 202.391C245.443 201.363 245.09 200.306 244.814 199.228C244.427 198.186 244.115 197.117 243.883 196.03C244.922 198.014 245.595 200.168 245.871 202.391Z" fill="#F5F5F5"/>
<path d="M247.157 209.12C246.201 209.642 245.173 210.017 244.105 210.233C243.067 210.563 241.983 210.73 240.893 210.726C241.913 210.375 242.956 210.094 244.015 209.885C245.044 209.559 246.093 209.304 247.157 209.12Z" fill="#F5F5F5"/>
<path d="M233.142 217.338C233.037 217.338 233.336 215.628 233.42 213.521C233.503 211.415 233.364 209.704 233.468 209.691C233.789 210.945 233.895 212.245 233.781 213.535C233.788 214.83 233.572 216.116 233.142 217.338Z" fill="#F5F5F5"/>
<path d="M230.347 225.798C228.477 224.316 226.938 222.46 225.828 220.348C225.919 220.292 226.836 221.578 228.088 223.08C228.888 223.946 229.643 224.853 230.347 225.798Z" fill="#F5F5F5"/>
<path d="M244.397 224.012C243.487 224.584 242.514 225.051 241.498 225.402C240.528 225.869 239.509 226.228 238.46 226.473C240.342 225.429 242.333 224.597 244.397 223.991V224.012Z" fill="#F5F5F5"/>
<path d="M239.364 239.932C239.153 237.386 239.178 234.826 239.44 232.284C239.66 234.83 239.635 237.391 239.364 239.932Z" fill="#F5F5F5"/>
<path d="M228.581 239.014C228.757 236.354 229.409 233.747 230.507 231.318C230.604 231.353 230.076 233.042 229.548 235.163C229.019 237.283 228.686 239.035 228.581 239.014Z" fill="#F5F5F5"/>
<path d="M229.075 243.192C229.075 243.296 227.351 243.463 225.237 243.818C223.124 244.172 221.428 244.562 221.4 244.457C222.606 243.951 223.876 243.614 225.175 243.456C226.456 243.184 227.769 243.095 229.075 243.192Z" fill="#F5F5F5"/>
<path d="M217.146 240.516C217.75 239.641 218.449 238.837 219.231 238.117C219.92 237.316 220.699 236.598 221.553 235.976C220.949 236.85 220.249 237.655 219.467 238.374C218.777 239.173 217.998 239.892 217.146 240.516Z" fill="#F5F5F5"/>
<path d="M209.422 248.003C209.053 247.117 208.74 246.209 208.483 245.285C208.106 244.401 207.781 243.495 207.51 242.573C208.612 244.184 209.272 246.057 209.422 248.003Z" fill="#F5F5F5"/>
<path d="M221.873 252.327C219.502 251.541 217.213 250.526 215.039 249.296C216.238 249.634 217.402 250.086 218.515 250.645C219.684 251.101 220.808 251.664 221.873 252.327Z" fill="#F5F5F5"/>
<path d="M200.155 251.069C200.252 250.194 200.472 249.338 200.808 248.524C201.028 247.674 201.362 246.858 201.802 246.098C201.704 246.973 201.484 247.829 201.149 248.642C200.924 249.491 200.59 250.306 200.155 251.069Z" fill="#F5F5F5"/>
<path d="M214.476 253.495C214.476 253.599 212.481 253.28 210.02 253.154C207.559 253.029 205.563 253.154 205.556 253.015C207.033 252.729 208.543 252.654 210.04 252.793C211.545 252.812 213.039 253.049 214.476 253.495Z" fill="#F5F5F5"/>
<path d="M217.451 232.994C217.438 232.901 217.438 232.808 217.451 232.716C217.449 232.449 217.489 232.184 217.569 231.93C217.677 231.501 217.946 231.13 218.32 230.894C218.833 230.598 219.436 230.499 220.016 230.616L219.877 230.699C220.635 228.03 221.852 224.137 223.068 219.771C224.208 215.683 224.98 211.922 225.515 209.19C225.78 207.876 225.988 206.785 226.155 205.957C226.218 205.56 226.308 205.167 226.426 204.782C226.417 205.186 226.373 205.589 226.294 205.985C226.183 206.757 226.002 207.869 225.766 209.239C225.163 212.819 224.379 216.367 223.416 219.868C222.199 224.241 220.941 228.12 220.107 230.769L220.072 230.873H219.968C219.443 230.753 218.892 230.828 218.417 231.082C218.072 231.288 217.813 231.611 217.687 231.993C217.458 232.604 217.5 233.001 217.451 232.994Z" fill="#222222"/>
<path d="M233.038 242.664C232.982 242.664 232.551 241.746 231.647 240.342C229.33 236.676 226.063 233.706 222.192 231.749C220.712 231.005 219.731 230.665 219.752 230.602C219.99 230.64 220.223 230.703 220.447 230.79C221.076 230.994 221.692 231.238 222.29 231.52C226.287 233.378 229.623 236.409 231.856 240.21C232.191 240.779 232.491 241.369 232.752 241.976C232.884 242.188 232.98 242.421 233.038 242.664Z" fill="#222222"/>
<g opacity="0.2">
<path d="M220.17 230.095C222.666 230.157 225.137 230.605 227.497 231.422C229.993 232.354 232.301 234.148 233.218 236.65C233.367 236.933 233.434 237.251 233.411 237.57C233.387 237.888 233.275 238.193 233.086 238.451C232.908 238.604 232.691 238.705 232.46 238.743C232.228 238.781 231.99 238.755 231.772 238.666C231.337 238.484 230.944 238.215 230.618 237.874C229.089 236.483 227.497 235.204 225.919 233.842C224.341 232.479 222.033 231.061 219.975 230.734" fill="black"/>
</g>
<path d="M215.157 225.659C214.944 225.828 214.711 225.968 214.462 226.076C213.777 226.411 213.063 226.682 212.328 226.883C209.882 227.581 207.294 227.612 204.832 226.972C202.37 226.333 200.124 225.047 198.326 223.247C197.784 222.711 197.291 222.127 196.853 221.502C196.679 221.29 196.534 221.056 196.422 220.807C196.477 220.765 197.117 221.78 198.507 223.087C200.313 224.793 202.52 226.014 204.924 226.639C207.328 227.264 209.851 227.271 212.258 226.66C214.073 226.174 215.122 225.59 215.157 225.659Z" fill="#222222"/>
<g opacity="0.2">
<path d="M196.762 221.321C197.937 223.866 199.307 226.431 201.531 228.141C202.761 229.204 204.298 229.846 205.918 229.976C208.24 230.018 210.235 228.433 212.008 226.931C206.266 227.835 199.8 225.228 196.762 221.321Z" fill="black"/>
</g>
<path d="M222.471 187.256C222.359 187.256 222.471 184.865 222.206 181.952C221.942 179.039 221.351 176.724 221.456 176.696C221.685 177.17 221.846 177.673 221.935 178.191C222.236 179.416 222.445 180.661 222.561 181.917C222.685 183.174 222.718 184.438 222.658 185.699C222.664 186.224 222.601 186.748 222.471 187.256Z" fill="#222222"/>
<path d="M140.006 280.288C140.006 280.288 132.449 281.922 125.706 280.907C119.379 279.961 105.218 280.941 105.225 289.249C105.225 298.544 124.114 296.25 131.476 294.776C138.838 293.302 146.179 291.995 146.179 291.995L140.006 280.288Z" fill="#4E7BBE"/>
<path d="M123.043 292.197C122.628 291.154 122.322 290.07 122.132 288.964C121.83 287.882 121.643 286.77 121.576 285.648C121.982 286.692 122.278 287.775 122.459 288.881C122.771 289.962 122.967 291.074 123.043 292.197Z" fill="#222222"/>
<path d="M125.622 292.322C125.076 290.132 124.768 287.89 124.705 285.634C125.036 286.713 125.251 287.825 125.344 288.95C125.554 290.061 125.647 291.191 125.622 292.322Z" fill="#222222"/>
<path d="M128.111 291.349C127.82 290.407 127.642 289.434 127.583 288.45C127.402 287.48 127.344 286.493 127.409 285.509C127.876 287.42 128.109 289.381 128.104 291.349H128.111Z" fill="#222222"/>
<path d="M132.018 290.41C131.535 289.653 131.206 288.807 131.052 287.921C130.78 287.062 130.686 286.156 130.774 285.259C131.04 286.101 131.249 286.96 131.399 287.831C131.667 288.675 131.873 289.537 132.018 290.41Z" fill="#222222"/>
<path d="M132.887 286.976C133.211 286.901 133.544 286.878 133.874 286.906C134.78 286.938 135.674 287.114 136.523 287.428C136.817 287.532 137.093 287.68 137.344 287.866C137.491 287.973 137.612 288.112 137.7 288.271C137.788 288.431 137.839 288.608 137.851 288.79C137.835 288.991 137.777 289.185 137.678 289.361C137.58 289.536 137.445 289.688 137.283 289.807C137.12 289.925 136.934 290.007 136.737 290.046C136.54 290.085 136.336 290.081 136.141 290.035C135.342 289.816 134.646 289.324 134.173 288.644C133.389 287.632 132.939 286.4 132.888 285.12C132.837 283.84 133.187 282.576 133.888 281.505C134.031 281.332 134.226 281.212 134.445 281.164C134.558 281.149 134.674 281.16 134.783 281.195C134.892 281.229 134.993 281.288 135.077 281.366C135.345 281.641 135.512 281.998 135.55 282.381C135.636 283.009 135.603 283.648 135.453 284.264C135.245 285.159 134.803 285.981 134.173 286.649C134.007 286.831 133.823 286.997 133.624 287.143C133.558 287.199 133.483 287.243 133.402 287.275C133.402 287.275 133.666 287.038 134.097 286.579C134.66 285.9 135.049 285.093 135.23 284.23C135.356 283.642 135.372 283.037 135.279 282.443C135.243 282.135 135.109 281.848 134.896 281.623C134.842 281.578 134.779 281.545 134.711 281.527C134.643 281.508 134.572 281.505 134.503 281.517C134.433 281.529 134.367 281.556 134.309 281.595C134.251 281.635 134.202 281.687 134.166 281.748C133.532 282.763 133.222 283.948 133.277 285.144C133.333 286.34 133.753 287.491 134.479 288.443C134.894 289.065 135.514 289.522 136.231 289.736C136.38 289.774 136.535 289.781 136.686 289.756C136.837 289.73 136.981 289.673 137.109 289.587C137.236 289.502 137.344 289.39 137.425 289.26C137.507 289.13 137.559 288.984 137.58 288.832C137.569 288.695 137.528 288.562 137.461 288.442C137.394 288.322 137.301 288.218 137.191 288.137C136.97 287.961 136.724 287.82 136.461 287.72C135.639 287.394 134.775 287.188 133.895 287.108C133.207 286.99 132.887 287.004 132.887 286.976Z" fill="#222222"/>
<path d="M145.436 290.765L145.248 290.827L144.678 290.966L142.488 291.467C140.583 291.884 137.816 292.475 134.382 293.135C130.948 293.796 126.846 294.526 122.244 295.172C119.834 295.568 117.388 295.692 114.951 295.541C113.654 295.453 112.372 295.208 111.135 294.811C110.499 294.595 109.884 294.32 109.299 293.99C108.688 293.663 108.143 293.225 107.693 292.697C107.442 292.466 107.222 292.201 107.04 291.912C106.685 291.302 106.467 290.623 106.401 289.92C106.335 289.218 106.423 288.51 106.657 287.845C107.112 286.561 107.958 285.452 109.077 284.675C110.129 283.933 111.29 283.359 112.518 282.971C113.123 282.798 113.707 282.589 114.305 282.457C114.903 282.325 115.493 282.179 116.084 282.095C120.819 281.352 125.122 281.727 128.709 281.727C130.503 281.762 132.123 281.727 133.541 281.63C134.753 281.542 135.96 281.389 137.156 281.171L138.463 280.893L139.401 280.629L139.978 280.469C140.043 280.446 140.111 280.432 140.18 280.427C140.18 280.427 140.117 280.462 139.992 280.503L139.422 280.698L138.491 280.997L137.191 281.31C135.989 281.552 134.776 281.726 133.555 281.831C132.13 281.936 130.503 282.005 128.688 281.984C125.101 282.019 120.798 281.664 116.126 282.422C115.542 282.506 114.965 282.666 114.374 282.791C113.783 282.916 113.213 283.131 112.615 283.298C111.422 283.676 110.294 284.237 109.271 284.96C108.215 285.695 107.415 286.743 106.984 287.956C106.769 288.571 106.688 289.225 106.748 289.874C106.808 290.523 107.007 291.152 107.332 291.717C107.498 291.973 107.696 292.207 107.923 292.412C108.347 292.893 108.853 293.295 109.417 293.601C109.98 293.92 110.571 294.185 111.183 294.394C112.394 294.777 113.648 295.011 114.916 295.089C117.329 295.241 119.752 295.126 122.14 294.748C126.728 294.143 130.836 293.413 134.271 292.788C137.705 292.162 140.479 291.606 142.398 291.23L144.601 290.799L145.171 290.695C145.264 290.699 145.354 290.723 145.436 290.765Z" fill="#222222"/>
<path d="M117.808 295.276C117.695 294.638 117.632 293.992 117.621 293.344C117.537 292.155 117.398 290.507 117.155 288.707C116.911 286.906 116.62 285.279 116.383 284.105C116.221 283.478 116.112 282.838 116.056 282.193C116.315 282.789 116.508 283.411 116.633 284.049C117.013 285.568 117.308 287.107 117.516 288.658C117.721 290.208 117.842 291.767 117.878 293.33C117.922 293.979 117.898 294.632 117.808 295.276Z" fill="#222222"/>
<path opacity="0.4" d="M137.677 280.691L142.467 292.683L146.179 291.995L139.067 280.288L137.677 280.691Z" fill="black"/>
<path d="M200.078 247.822C199.307 248.072 149.829 234.21 129.821 228.586C127.224 227.854 124.5 227.685 121.831 228.089C119.163 228.493 116.611 229.461 114.346 230.929L114.103 231.082C110.818 233.206 108.27 236.292 106.805 239.92C105.34 243.547 105.032 247.538 105.921 251.347C106.491 253.8 107.544 256.115 109.016 258.158C110.489 260.201 112.353 261.932 114.499 263.249C127.708 271.334 155.62 288.338 156.475 288.005C157.595 287.574 192.466 286.67 192.466 286.67L150.511 256.491L170.47 269.394L200.078 247.843V247.822Z" fill="#222222"/>
<path d="M158.769 232.764L169.288 227.321L179.605 233.786L218.216 235.051L223.777 253.822L167.884 240.863C167.884 240.863 157.713 241.767 156.948 239.473C156.183 237.179 158.769 232.764 158.769 232.764Z" fill="#FFBE9D"/>
<path d="M190.408 262.894L185.208 279.982L185.855 285.189C190.434 289.803 196.538 292.589 203.023 293.025C209.509 293.462 215.931 291.518 221.087 287.56C224.283 285.106 226.87 281.947 228.645 278.329C230.42 274.712 231.335 270.733 231.321 266.704L231.244 248.865L190.408 262.894Z" fill="#222222"/>
<path d="M159.444 263.005C159.388 263.082 153.354 258.681 145.971 253.175C138.588 247.669 132.644 243.137 132.706 243.06C132.769 242.984 138.796 247.377 146.186 252.883C153.576 258.389 159.506 262.922 159.444 263.005Z" fill="#455A64"/>
<path d="M168.579 230.727C166.906 231.453 165.188 232.069 163.434 232.57C161.716 233.178 159.96 233.678 158.179 234.064C159.851 233.337 161.569 232.721 163.323 232.222C165.041 231.612 166.797 231.113 168.579 230.727Z" fill="#EB996E"/>
<path d="M169.364 233.932C168.778 234.099 168.177 234.213 167.57 234.273C166.465 234.454 164.943 234.725 163.274 235.107C161.606 235.489 160.118 235.913 159.04 236.233C158.468 236.44 157.88 236.601 157.281 236.713C157.811 236.418 158.374 236.184 158.957 236.018C160.344 235.526 161.757 235.112 163.191 234.78C164.624 234.452 166.074 234.206 167.536 234.043C168.139 233.942 168.752 233.905 169.364 233.932Z" fill="#EB996E"/>
<path d="M168.481 236.88C166.581 237.445 164.647 237.891 162.69 238.215C160.756 238.66 158.797 238.987 156.823 239.195C158.727 238.633 160.663 238.187 162.621 237.86C164.553 237.416 166.51 237.088 168.481 236.88Z" fill="#EB996E"/>
<path d="M154.842 207.542L164.54 239.466C164.594 239.644 164.701 239.801 164.846 239.917C164.991 240.034 165.168 240.104 165.353 240.119L191.771 242.101C192.005 242.117 192.224 242.221 192.384 242.393C192.544 242.564 192.633 242.791 192.633 243.025V244.673C192.633 244.796 192.608 244.918 192.56 245.032C192.512 245.145 192.442 245.248 192.354 245.334C192.266 245.42 192.162 245.488 192.047 245.533C191.933 245.578 191.81 245.6 191.687 245.598L119.386 244.207C119.201 244.204 119.022 244.145 118.871 244.038C118.719 243.932 118.604 243.782 118.538 243.609L105.83 210.316C105.777 210.179 105.757 210.032 105.772 209.886C105.787 209.74 105.837 209.6 105.917 209.477C105.998 209.354 106.106 209.252 106.233 209.179C106.361 209.106 106.504 209.065 106.65 209.058L153.861 206.854C154.08 206.835 154.297 206.894 154.477 207.02C154.656 207.146 154.785 207.331 154.842 207.542Z" fill="#455A64"/>
<path d="M134.472 221.293C134.118 221.426 133.802 221.643 133.552 221.927C133.302 222.211 133.126 222.552 133.04 222.92C133.008 223.305 133.078 223.691 133.243 224.04C133.407 224.389 133.661 224.689 133.979 224.908C134.36 225.184 134.814 225.341 135.285 225.358C135.755 225.375 136.22 225.253 136.62 225.006C137.022 224.707 137.31 224.281 137.436 223.797C137.563 223.313 137.52 222.8 137.316 222.343C136.996 221.46 135.383 220.841 134.451 221.293" fill="#F5F5F5"/>
<path d="M146.179 291.995L138.532 279.426L194.704 235.399C198.199 232.533 202.473 230.782 206.975 230.373C210.254 230.075 213.559 230.498 216.657 231.612C219.756 232.726 222.573 234.505 224.911 236.824C227.25 239.142 229.052 241.944 230.193 245.033C231.334 248.122 231.785 251.423 231.515 254.705L230.618 265.445L193.37 277.452L146.179 291.995Z" fill="#222222"/>
<path d="M218.216 262.157C218.216 262.157 218.174 262.206 218.07 262.296L217.611 262.672L215.824 264.104L214.524 265.126C214.052 265.501 213.489 265.821 212.912 266.259L211.048 267.538C210.715 267.76 210.353 268.004 210.026 268.233L208.907 268.928C207.385 269.839 205.737 270.882 203.867 271.827C202.942 272.314 201.997 272.842 201.003 273.336L197.895 274.803C193.259 276.926 188.519 278.815 183.692 280.462C173.431 284 163.949 286.545 157.157 288.603C155.453 289.103 153.917 289.576 152.568 289.993C151.22 290.41 150.066 290.765 149.092 291.084L146.923 291.78L146.353 291.953C146.288 291.977 146.22 291.993 146.152 292.002L146.339 291.919L146.895 291.71L149.051 290.938C149.982 290.598 151.136 290.243 152.485 289.784C153.834 289.326 155.356 288.853 157.052 288.338C163.831 286.211 173.306 283.632 183.546 280.1C188.677 278.355 193.453 276.409 197.728 274.483L200.829 273.03C201.83 272.543 202.776 272.022 203.7 271.542C205.57 270.611 207.218 269.582 208.747 268.692L209.867 268.032C210.221 267.809 210.562 267.573 210.895 267.336L212.835 266.078C213.412 265.682 213.975 265.341 214.455 264.973L215.769 263.972L217.597 262.581L218.084 262.234L218.216 262.157Z" fill="#455A64"/>
<path d="M219.578 268.032C219.406 268.158 219.217 268.259 219.015 268.331C218.64 268.497 218.091 268.727 217.402 268.977C215.607 269.639 213.767 270.173 211.896 270.576C210.024 270.976 208.126 271.245 206.217 271.382C205.487 271.431 204.889 271.452 204.479 271.452C204.265 271.468 204.05 271.456 203.839 271.417C204.619 271.277 205.406 271.18 206.196 271.125C207.642 270.965 209.672 270.687 211.82 270.221C213.968 269.756 215.929 269.186 217.319 268.741C218.059 268.464 218.813 268.227 219.578 268.032Z" fill="#455A64"/>
<path d="M192.466 237.512C192.528 237.596 180.508 247.044 165.617 258.612C150.726 270.18 138.602 279.509 138.546 279.426C138.49 279.343 150.504 269.902 165.395 258.327C180.286 246.752 192.41 237.436 192.466 237.512Z" fill="#455A64"/>
<path d="M189.198 284.23C186.508 282.798 183.484 283.646 180.905 284.515C179.187 285.092 177.429 286.009 175.663 285.516C174.404 285.161 173.466 284.125 172.5 283.256C170.55 281.464 168.261 280.079 165.768 279.185C163.275 278.291 160.628 277.905 157.984 278.049C156.474 278.122 155.047 278.766 153.993 279.85C151.345 282.721 153.34 286.447 155.711 288.888C159.934 293.181 165.512 295.882 171.498 296.535C176.427 297.049 183.206 296.368 188.183 294.227C191.263 292.906 192.841 289.27 191.228 286.336C190.773 285.45 190.067 284.717 189.198 284.23Z" fill="#4E7BBE"/>
<g opacity="0.4">
<path d="M189.198 286.524C186.501 285.092 183.477 285.94 180.897 286.809C179.18 287.386 177.421 288.304 175.656 287.81C174.397 287.455 173.459 286.42 172.493 285.551C170.543 283.758 168.254 282.373 165.761 281.479C163.268 280.585 160.621 280.199 157.977 280.344C156.466 280.416 155.04 281.06 153.986 282.144C153.453 282.713 153.071 283.406 152.874 284.16C153.384 285.95 154.361 287.572 155.703 288.86C159.927 293.153 165.505 295.854 171.491 296.507C176.42 297.021 183.199 296.34 188.176 294.199C189.06 293.823 189.842 293.243 190.46 292.508C191.077 291.772 191.512 290.901 191.729 289.965C191.572 289.247 191.263 288.571 190.823 287.982C190.383 287.393 189.822 286.905 189.177 286.552L189.198 286.524Z" fill="black"/>
</g>
<path d="M191.771 289.937C191.654 289.367 191.43 288.825 191.11 288.338C190.724 287.787 190.236 287.315 189.671 286.948C188.928 286.445 188.079 286.122 187.189 286.002C185.194 285.766 182.872 286.607 180.3 287.303C179.028 287.643 177.637 288.158 176.129 287.998C175.366 287.899 174.632 287.643 173.974 287.247C173.318 286.838 172.699 286.373 172.124 285.857C170.027 283.863 167.509 282.366 164.755 281.477C163.565 281.073 162.338 280.788 161.092 280.629C160.008 280.472 158.908 280.472 157.824 280.629C156.938 280.763 156.085 281.06 155.308 281.505C154.725 281.842 154.198 282.266 153.743 282.763C153.048 283.632 152.791 284.223 152.749 284.195C152.965 283.644 153.265 283.131 153.639 282.672C154.073 282.126 154.594 281.656 155.182 281.282C155.976 280.797 156.857 280.471 157.776 280.323C158.882 280.158 160.006 280.158 161.113 280.323C162.381 280.475 163.632 280.752 164.846 281.15C166.186 281.595 167.48 282.168 168.711 282.86C169.367 283.223 169.997 283.632 170.595 284.084C171.2 284.556 171.763 285.071 172.347 285.571C172.906 286.086 173.508 286.551 174.147 286.962C174.763 287.328 175.447 287.564 176.157 287.657C177.547 287.845 178.937 287.358 180.21 287.024C182.775 286.329 185.132 285.516 187.224 285.787C188.033 285.904 188.808 286.19 189.498 286.627C190.188 287.065 190.778 287.643 191.229 288.324C191.466 288.697 191.635 289.109 191.729 289.541C191.757 289.671 191.771 289.804 191.771 289.937Z" fill="#222222"/>
<path d="M191.771 289.937C191.654 289.367 191.43 288.825 191.11 288.338C190.724 287.787 190.236 287.315 189.671 286.948C188.928 286.445 188.079 286.122 187.189 286.002C185.194 285.766 182.872 286.607 180.3 287.303C179.028 287.643 177.637 288.158 176.129 287.998C175.366 287.899 174.632 287.643 173.974 287.247C173.318 286.838 172.699 286.373 172.124 285.857C170.027 283.863 167.509 282.366 164.755 281.477C163.565 281.073 162.338 280.788 161.092 280.629C160.008 280.472 158.908 280.472 157.824 280.629C156.938 280.763 156.085 281.06 155.308 281.505C154.725 281.842 154.198 282.266 153.743 282.763C153.048 283.632 152.791 284.223 152.749 284.195C152.965 283.644 153.265 283.131 153.639 282.672C154.073 282.126 154.594 281.656 155.182 281.282C155.976 280.797 156.857 280.471 157.776 280.323C158.882 280.158 160.006 280.158 161.113 280.323C162.381 280.475 163.632 280.752 164.846 281.15C166.186 281.595 167.48 282.168 168.711 282.86C169.367 283.223 169.997 283.632 170.595 284.084C171.2 284.556 171.763 285.071 172.347 285.571C172.906 286.086 173.508 286.551 174.147 286.962C174.763 287.328 175.447 287.564 176.157 287.657C177.547 287.845 178.937 287.358 180.21 287.024C182.775 286.329 185.132 285.516 187.224 285.787C188.033 285.904 188.808 286.19 189.498 286.627C190.188 287.065 190.778 287.643 191.229 288.324C191.466 288.697 191.635 289.109 191.729 289.541C191.757 289.671 191.771 289.804 191.771 289.937Z" fill="#222222"/>
<path d="M158.353 289.284C158.777 288.913 159.243 288.593 159.743 288.331C160.897 287.634 162.088 286.998 163.309 286.427C164.531 285.851 165.782 285.338 167.056 284.89C167.575 284.678 168.116 284.527 168.669 284.438C168.184 284.717 167.675 284.949 167.147 285.134C166.194 285.53 164.887 286.086 163.462 286.753C162.037 287.421 160.779 288.074 159.868 288.554C159.389 288.847 158.881 289.092 158.353 289.284Z" fill="#222222"/>
<path d="M159.305 291.981C161.002 290.96 162.759 290.043 164.567 289.235C166.325 288.321 168.136 287.513 169.99 286.816C168.293 287.837 166.535 288.754 164.727 289.562C162.971 290.479 161.16 291.287 159.305 291.981Z" fill="#222222"/>
<path d="M170.428 293.149C170.372 293.233 167.501 291.522 164.018 289.326C160.535 287.129 157.761 285.273 157.761 285.189C157.761 285.106 160.681 286.816 164.171 289.02C167.661 291.223 170.498 293.066 170.428 293.149Z" fill="#222222"/>
<path d="M172.055 290.354C171.564 290.085 171.098 289.771 170.665 289.416C169.823 288.804 168.655 287.963 167.348 287.059C166.041 286.155 164.853 285.356 163.984 284.779C163.488 284.497 163.023 284.167 162.593 283.792C163.122 283.994 163.628 284.253 164.102 284.563C165.006 285.085 166.236 285.857 167.578 286.76C168.92 287.664 170.039 288.547 170.845 289.214C171.294 289.543 171.701 289.926 172.055 290.354Z" fill="#222222"/>
</svg>
