<svg width="80" height="80" viewBox="0 0 80 80" fill="none" xmlns="http://www.w3.org/2000/svg">
<path fill-rule="evenodd" clip-rule="evenodd" d="M44.1171 20.6821C46.1754 21.7566 48.0824 23.0986 49.7886 24.6729L55.8513 22.5228L61.5391 31.4981L57.0084 36.059C57.7031 38.2776 58.1031 40.5778 58.1981 42.9005L64 45.6533L61.6695 55.9806H55.2483C54.1675 58.0384 52.8194 59.9444 51.2391 61.6493L53.4067 67.7088L44.4105 73.3937L39.8472 69.012C37.6328 69.7049 35.337 70.1047 33.0186 70.2011L30.2643 76L19.8829 73.6706V67.2527C17.8221 66.1758 15.9146 64.8281 14.2114 63.2456L8.14871 65.4121L2.44461 56.4204L6.99161 51.8758C6.29965 49.6566 5.89972 47.3568 5.8019 45.0344L0 42.2815L2.31426 31.9053H8.71913C9.79026 29.8457 11.1332 27.9391 12.712 26.2367L10.577 20.1446L19.5569 14.4434L24.1202 18.9881C26.3399 18.2937 28.6412 17.8939 30.9651 17.7989L33.7194 12L44.1009 14.3293V20.7473L44.1171 20.6821ZM34.958 32.8989C32.7568 32.4066 30.459 32.5775 28.355 33.39C26.251 34.2025 24.4352 35.6201 23.1371 37.4638C21.8389 39.3075 21.1167 41.4944 21.0617 43.7482C21.0068 46.002 21.6215 48.2214 22.8282 50.1261C24.0349 52.0309 25.7794 53.5353 27.8413 54.4493C29.9032 55.3633 32.1899 55.6459 34.4125 55.2614C36.635 54.8768 38.6936 53.8424 40.3281 52.2889C41.9627 50.7353 43.0997 48.7323 43.5956 46.533C43.9253 45.0708 43.9634 43.558 43.7076 42.0812C43.4518 40.6043 42.9072 39.1924 42.1049 37.9261C41.3027 36.6598 40.2585 35.564 39.0322 34.7014C37.8058 33.8388 36.4214 33.2263 34.958 32.8989Z" fill="#222222"/>
<path fill-rule="evenodd" clip-rule="evenodd" d="M71.1179 11.9206C70.0515 10.9366 68.8596 10.0979 67.5732 9.4263L67.563 9.46703V5.45583L61.0746 4L59.3532 7.62433C57.9007 7.68369 56.4624 7.93357 55.0751 8.36753L52.223 5.52711L46.6106 9.09035L47.2582 10.9383L48.1008 11.1274V18.362C48.97 18.9097 49.8107 19.5011 50.6199 20.134L56.2743 18.1286C56.7238 17.8222 57.2091 17.5667 57.7219 17.3687C59.0369 16.8609 60.473 16.7541 61.8487 17.0618C62.7633 17.2664 63.6286 17.6492 64.3951 18.1884C65.1616 18.7275 65.8142 19.4123 66.3156 20.2038C66.817 20.9952 67.1573 21.8777 67.3172 22.8007C67.4771 23.7238 67.4533 24.6693 67.2472 25.5831C66.9373 26.9577 66.2266 28.2095 65.2051 29.1805C65.1223 29.2592 65.0377 29.3358 64.9515 29.4102L66.6262 32.0528L61.4672 37.2463C61.6927 38.2426 61.868 39.2496 61.9926 40.2635C62.9793 40.141 63.9539 39.9299 64.9045 39.6325L67.7565 42.3711L73.3791 38.818L72.0244 35.0308C73.0121 33.9653 73.8546 32.774 74.5302 31.4879H78.5434L80 25.0333L76.3738 23.3128C76.3144 21.8611 76.0644 20.4235 75.6302 19.0369L78.4619 16.1863L74.907 10.5767L71.1179 11.9206Z" fill="#222222"/>
</svg>
