<svg width="80" height="80" viewBox="0 0 80 80" fill="none" xmlns="http://www.w3.org/2000/svg">
<path fill-rule="evenodd" clip-rule="evenodd" d="M68.5232 8.27529C62.6873 9.37641 58.0233 10.5404 58.0862 10.8865C58.1437 11.1959 62.1367 10.7089 67.2779 9.81098C64.3586 14.2493 62.2923 17.821 62.5457 17.973C62.821 18.1382 65.7783 14.2764 69.1131 9.32135L69.1603 9.25056L70.0019 8L68.5232 8.27529ZM7.00205 48.191C6.81328 47.9 19.6964 39.3113 35.7649 29.0079C51.8334 18.7045 65.0312 10.5877 65.2199 10.918C65.4087 11.2484 52.5256 19.7978 36.4492 30.1012C20.3728 40.4045 7.17508 48.482 7.00205 48.191ZM63.93 21.7562L64.921 70.5831H72.1255L71.0008 21.7562H63.93ZM44.0549 71.9752H36.8425L35.8594 36.1494H42.9223L44.0549 71.9752ZM24.6043 72.8482H31.8088L30.6841 45.4853H23.6133L24.6043 72.8482ZM11.5323 72.8404H18.7447L17.6121 53.264H10.5413L11.5323 72.8404ZM58.4638 70.7482H51.2593L50.2683 28.7326H57.3312L58.4638 70.7482Z" fill="#222222"/>
</svg>
