<svg width="80" height="80" viewBox="0 0 80 80" fill="none" xmlns="http://www.w3.org/2000/svg">
<g clip-path="url(#clip0_48_127)">
<path d="M23.7298 70.1741C25.2407 68.7268 26.3026 66.8748 26.7886 64.8397C27.2745 62.8046 27.1639 60.6727 26.4699 58.6989L30.1559 55.1472L30.6785 54.6652L59.8408 26.5776C61.639 27.2989 63.5972 27.5274 65.5132 27.2395C67.4292 26.9515 69.2337 26.1576 70.7405 24.9395C72.2473 23.7215 73.4018 22.1234 74.0849 20.3103C74.768 18.4972 74.955 16.5347 74.6265 14.6252L71.0522 18.037L65.9898 17.9295L62.4858 14.2729L62.5932 9.21047L66.1453 5.80289C64.2534 5.39772 62.2878 5.50375 60.4504 6.1101C58.6131 6.71645 56.9704 7.80123 55.6913 9.2529C54.4122 10.7046 53.5427 12.4707 53.1725 14.3698C52.8022 16.2688 52.9444 18.2322 53.5845 20.0581L23.9359 48.617L23.0272 49.4708L20.2173 52.1786C18.4205 51.4642 16.466 51.241 14.5544 51.5318C12.6427 51.8226 10.843 52.6171 9.33994 53.8335C7.83689 55.0499 6.68473 56.6445 6.00177 58.4535C5.31881 60.2624 5.12968 62.2206 5.45379 64.1269L9.00593 60.7193L14.0683 60.8267L17.5723 64.4834L17.4649 69.5458L13.926 72.9624C15.6636 73.3336 17.4656 73.2736 19.1747 72.7876C20.8837 72.3015 22.4477 71.4042 23.7298 70.1741Z" fill="#222222"/>
</g>
<defs>
<clipPath id="clip0_48_127">
<rect width="80" height="80" fill="white"/>
</clipPath>
</defs>
</svg>
